<svg xmlns="http://www.w3.org/2000/svg" version="1.1" xmlns:xlink="http://www.w3.org/1999/xlink" xmlns:svgjs="http://svgjs.dev/svgjs" width="1500" height="1500" viewBox="0 0 1500 1500"><rect width="1500" height="1500" fill="#000000"></rect><g transform="matrix(0.6666666666666666,0,0,0.6666666666666666,249.39393939393938,435.99032258064517)"><svg viewBox="0 0 396 248" data-background-color="#000000" preserveAspectRatio="xMidYMid meet" height="939" width="1500" xmlns="http://www.w3.org/2000/svg" xmlns:xlink="http://www.w3.org/1999/xlink"><g id="tight-bounds" transform="matrix(1,0,0,1,0.2400000000000091,0.4000000000000057)"><svg viewBox="0 0 395.52 247.2" height="247.2" width="395.52"><rect width="395.52" height="247.2" fill="#ffffff" mask="url(#e0be5db2-4436-475a-8506-c2b917ecbb61)" data-fill-palette-color="tertiary"></rect><g><svg></svg></g><g><svg viewBox="0 0 395.52 247.2" height="247.2" width="395.52"><g transform="matrix(1,0,0,1,75.54432,64.96869315405387)"><svg viewBox="0 0 244.43135999999998 117.26261369189226" height="117.26261369189226" width="244.43135999999998"><g><svg viewBox="0 0 244.43135999999998 117.26261369189226" height="117.26261369189226" width="244.43135999999998"><g><svg viewBox="0 0 244.43136 117.26261369189227" height="117.26261369189226" width="244.43135999999998"><g><svg viewBox="0 0 244.43136 117.26261369189227" height="117.26261369189227" width="244.43136"><g id="textblocktransform"><svg viewBox="0 0 244.43136 117.26261369189227" height="117.26261369189227" width="244.43136" id="textblock"><g><svg viewBox="0 0 244.43136 71.46825551269036" height="71.46825551269036" width="244.43136"><g transform="matrix(1,0,0,1,0,0)"><svg width="244.43136" viewBox="2.25 -34.86 120.22 35.15" height="71.46825551269036" data-palette-color="url(#b3700367-6824-4a14-b4a3-6fb5f6adf07e)"></svg></g></svg></g><g transform="matrix(1,0,0,1,0,88.34019540110425)"><svg viewBox="0 0 244.43136 28.922418290788016" height="28.922418290788016" width="244.43136"><g transform="matrix(1,0,0,1,0,0)"><svg width="244.43136" viewBox="0.49 -35.4 395.90999999999997 46.849999999999994" height="28.922418290788016" data-palette-color="url(#3bf35124-dd43-4ba5-98c4-c8089a39de58)"></svg></g></svg></g></svg></g></svg></g></svg></g></svg></g></svg></g><path d="M243.251 58.969L243.251 2.315 0.68 2.315 0.68 244.885 243.251 244.885 243.251 188.231 236.806 188.231 236.806 238.44 7.125 238.44 7.125 8.76 236.806 8.76 236.806 58.969Z" fill="#ffffff" stroke="transparent" data-fill-palette-color="tertiary"></path></svg></g><defs></defs><mask id="d7dac0fb-fad6-4bdd-a460-5732bcd94f17"><g id="SvgjsG1369"><svg viewBox="0 0 395.52 247.2" height="247.2" width="395.52"><g><svg></svg></g><g><svg viewBox="0 0 395.52 247.2" height="247.2" width="395.52"><g transform="matrix(1,0,0,1,75.54432,64.96869315405387)"><svg viewBox="0 0 244.43135999999998 117.26261369189226" height="117.26261369189226" width="244.43135999999998"><g><svg viewBox="0 0 244.43135999999998 117.26261369189226" height="117.26261369189226" width="244.43135999999998"><g><svg viewBox="0 0 244.43136 117.26261369189227" height="117.26261369189226" width="244.43135999999998"><g><svg viewBox="0 0 244.43136 117.26261369189227" height="117.26261369189227" width="244.43136"><g id="SvgjsG1368"><svg viewBox="0 0 244.43136 117.26261369189227" height="117.26261369189227" width="244.43136" id="SvgjsSvg1367"><g><svg viewBox="0 0 244.43136 71.46825551269036" height="71.46825551269036" width="244.43136"><g transform="matrix(1,0,0,1,0,0)"><svg width="244.43136" viewBox="2.25 -34.86 120.22 35.15" height="71.46825551269036" data-palette-color="url(#b3700367-6824-4a14-b4a3-6fb5f6adf07e)"><path d="M10.79 0L10.79 0 2.25 0 2.25-34.86 10.91-34.86Q15.45-34.86 17.49-33.4 19.53-31.93 19.6-28.54L19.6-28.54Q19.73-24.58 19.76-21.02 19.8-17.46 19.76-13.89 19.73-10.33 19.6-6.35L19.6-6.35Q19.53-2.95 17.48-1.48 15.43 0 10.79 0ZM10.91-31.74L5.64-31.74 5.64-3.13 10.79-3.13Q13.65-3.13 14.92-3.83 16.19-4.54 16.21-5.98L16.21-5.98Q16.58-17.43 16.21-28.93L16.21-28.93Q16.19-30.37 14.93-31.05 13.67-31.74 10.91-31.74L10.91-31.74ZM27.39-10.74L27.39 0 23.92 0 23.92-34.86 27.49-34.86 27.49-26.59 27.05-17.87 28.02-17.87 32.35-27.25 35.81-34.86 39.57-34.86 31.93-19.48 40.45 0 36.86 0 29.78-15.38 27.39-10.74ZM51.19-31.74L51.19 0 47.8 0 47.8-31.74 41.13-31.74 41.13-34.86 57.88-34.86 57.88-31.74 51.19-31.74ZM67.72 0.29L67.72 0.29Q63.69 0.29 61.97-0.98 60.25-2.25 60.12-5.13L60.12-5.13Q60.03-6.93 59.99-9.38 59.95-11.82 59.99-14.28 60.03-16.75 60.12-18.58L60.12-18.58Q60.25-21.53 62.02-22.8 63.79-24.07 67.72-24.07L67.72-24.07Q71.43-24.07 73.09-22.83 74.75-21.58 74.92-18.73L74.92-18.73Q74.97-17.87 75.02-15.75 75.07-13.62 74.87-11.23L74.87-11.23 63.18-11.23Q63.18-9.69 63.2-8.11 63.22-6.52 63.3-4.81L63.3-4.81Q63.32-3.47 64.32-2.95 65.32-2.44 67.62-2.44L67.62-2.44Q69.89-2.44 70.82-2.95 71.75-3.47 71.84-4.81L71.84-4.81Q71.92-6.15 71.84-8.47L71.84-8.47 74.87-8.47Q74.99-7.76 74.98-6.82 74.97-5.88 74.92-5.13L74.92-5.13Q74.75-2.25 73.17-0.98 71.6 0.29 67.72 0.29ZM63.18-13.82L63.18-13.82 71.89-13.82Q71.94-15.48 71.94-16.99 71.94-18.51 71.84-19.07L71.84-19.07Q71.75-20.29 70.79-20.81 69.84-21.34 67.72-21.34L67.72-21.34Q65.35-21.34 64.34-20.81 63.32-20.29 63.3-19.07L63.3-19.07Q63.22-17.65 63.19-16.36 63.15-15.06 63.18-13.82ZM84.54 0.27L84.54 0.27Q81.56 0.27 80.13-0.9 78.7-2.08 78.46-4.57L78.46-4.57Q78.43-5.05 78.4-5.54 78.36-6.03 78.41-6.49L78.41-6.49Q78.58-8.67 79.78-10.14 80.97-11.62 84.32-12.84L84.32-12.84Q85.68-13.33 87.2-13.72 88.71-14.11 90.2-14.48L90.2-14.48 90.2-18.99Q90.2-20.19 89.3-20.76 88.39-21.34 86.15-21.34L86.15-21.34Q84.19-21.34 83.18-20.85 82.17-20.36 82.07-19.07L82.07-19.07Q82.02-18.46 82.02-17.32 82.02-16.19 82.07-15.41L82.07-15.41 79.02-15.41Q78.97-16.02 78.92-16.99 78.87-17.97 78.95-18.73L78.95-18.73Q79.07-21.56 80.79-22.81 82.51-24.07 86.27-24.07L86.27-24.07Q90.2-24.07 91.73-22.71 93.25-21.34 93.28-18.21L93.28-18.21 93.28 0 90.2 0 90.2-2.25 89.52-2.25Q88.91-1.03 87.77-0.38 86.64 0.27 84.54 0.27ZM85.32-2.37L85.32-2.37Q88.83-2.37 90.18-4.47L90.18-4.47 90.18-11.87Q89-11.62 87.77-11.29 86.54-10.96 84.88-10.4L84.88-10.4Q82.9-9.67 82.24-8.72 81.58-7.76 81.48-6.49L81.48-6.49Q81.51-6.13 81.52-5.7 81.53-5.27 81.58-4.81L81.58-4.81Q81.75-3.64 82.75-3 83.75-2.37 85.32-2.37ZM100.92-19.19L100.92 0 97.77 0 97.77-23.75 100.92-23.75 100.92-21.53 101.53-21.53Q102.36-22.83 103.47-23.45 104.58-24.07 106.53-24.07L106.53-24.07Q110.46-24.07 111.36-21.34L111.36-21.34 112.02-21.34Q112.83-22.61 114.07-23.34 115.32-24.07 117.27-24.07L117.27-24.07Q119.88-24.07 121.18-22.86 122.47-21.66 122.47-18.82L122.47-18.82 122.47 0 119.35 0 119.35-19.09Q119.3-20.31 118.59-20.86 117.88-21.41 116.25-21.41L116.25-21.41Q113-21.41 111.73-19.12L111.73-19.12 111.73 0 108.61 0 108.61-19.09Q108.56-20.31 107.85-20.86 107.14-21.41 105.55-21.41L105.55-21.41Q102.09-21.41 100.92-19.19L100.92-19.19Z" opacity="1" transform="matrix(1,0,0,1,0,0)" fill="white" class="wordmark-text-0" id="SvgjsPath1366"></path></svg></g></svg></g><g transform="matrix(1,0,0,1,0,88.34019540110425)"><svg viewBox="0 0 244.43136 28.922418290788016" height="28.922418290788016" width="244.43136"><g transform="matrix(1,0,0,1,0,0)"><svg width="244.43136" viewBox="0.49 -35.4 395.90999999999997 46.849999999999994" height="28.922418290788016" data-palette-color="url(#3bf35124-dd43-4ba5-98c4-c8089a39de58)"><path d="M26-24.1L26-22.14 23.39-21.85 13.79 1.54Q13.48 2.34 12.81 3.85 12.13 5.35 11.22 6.92 10.3 8.5 9.25 9.55L9.25 9.55Q8.35 10.45 7.26 10.95 6.18 11.45 4.91 11.45L4.91 11.45Q3.13 11.45 2.19 10.58 1.25 9.72 1.25 8.59L1.25 8.59Q1.25 6.93 2.86 5.59L2.86 5.59 7.54 7.74Q8.37 6.91 9.2 5.49 10.03 4.08 10.71 2.56 11.38 1.05 11.74-0.05L11.74-0.05 3.25-21.85 0.49-22.14 0.49-24.1 11.55-24.1 11.55-22.14 9.16-22Q8.35-21.92 8.35-21.19L8.35-21.19Q8.35-21 8.4-20.9L8.4-20.9 14.21-6.15 20.14-20.9Q20.21-21.04 20.21-21.22L20.21-21.22Q20.21-21.95 19.46-22L19.46-22 17.09-22.14 17.09-24.1 26-24.1ZM51.98-12.01L51.98-12.01Q51.98-8.47 50.51-5.6 49.05-2.73 46.37-1.06 43.7 0.61 40.04 0.61L40.04 0.61Q36.4 0.61 33.74-1.05 31.08-2.71 29.64-5.57 28.2-8.42 28.2-12.01L28.2-12.01Q28.2-15.58 29.65-18.46 31.1-21.34 33.8-23.02 36.5-24.71 40.18-24.71L40.18-24.71Q43.92-24.71 46.56-23 49.19-21.29 50.58-18.41 51.98-15.53 51.98-12.01ZM46.77-12.06L46.77-12.06Q46.77-14.79 46.05-17.16 45.33-19.53 43.86-21 42.38-22.46 40.13-22.46L40.13-22.46Q37.81-22.46 36.34-21 34.86-19.53 34.15-17.16 33.44-14.79 33.44-12.06L33.44-12.06Q33.44-9.35 34.16-6.97 34.89-4.59 36.36-3.13 37.84-1.66 40.09-1.66L40.09-1.66Q42.38-1.66 43.86-3.13 45.33-4.59 46.05-6.96 46.77-9.33 46.77-12.06ZM81.07-1.95L81.07 0 73.14 0 73.14-2.86Q72.29-2.2 70.97-1.39 69.65-0.59 68.13 0.01 66.62 0.61 65.13 0.61L65.13 0.61Q61.91 0.61 60.07-1.33 58.22-3.27 58.22-7.5L58.22-7.5 58.22-21.04 54.73-21.04 54.73-22.75 60.88-24.71 62.89-24.71 62.89-8.45Q62.89-5.79 63.97-4.3 65.06-2.81 67.72-2.81L67.72-2.81Q69.26-2.81 70.75-3.33 72.24-3.86 73.14-4.3L73.14-4.3 73.14-21.04 69.62-21.04 69.62-22.75 75.73-24.71 77.78-24.71 77.78-3.2Q77.78-2.73 78.11-2.44 78.44-2.15 78.88-2.1L78.88-2.1 81.07-1.95ZM101.16-23.95L101.16-18.99 99.21-18.99Q98.75-19.56 98.1-19.96 97.45-20.36 96.53-20.36L96.53-20.36Q95.33-20.36 94.07-19.53 92.81-18.7 91.52-17.26L91.52-17.26 91.52-3.2Q91.52-2.15 92.57-2.1L92.57-2.1 95.87-1.95 95.87 0 83.37 0 83.37-1.9 85.83-2.1Q86.27-2.15 86.58-2.44 86.88-2.73 86.88-3.2L86.88-3.2 86.88-20.56 83.27-20.56 83.27-22.19 89.47-24.1 91.52-24.1 91.52-19.65Q92.25-20.46 93.35-21.66 94.45-22.85 95.7-23.78 96.94-24.71 98.11-24.71L98.11-24.71Q98.89-24.71 99.8-24.46 100.7-24.22 101.16-23.95L101.16-23.95ZM145.79-4.71L145.79-4.71 145.79-1.86Q144.1-0.95 141.99-0.17 139.88 0.61 137.34 0.61L137.34 0.61Q133.85 0.61 131.27-1.03 128.7-2.66 127.29-5.48 125.89-8.3 125.89-11.89L125.89-11.89Q125.89-16.09 127.56-18.95 129.24-21.8 131.98-23.25 134.73-24.71 137.93-24.71L137.93-24.71Q141.22-24.71 143.46-23.43 145.69-22.14 145.69-19.7L145.69-19.7Q145.69-18.24 144.78-17.49 143.86-16.75 142.74-16.75L142.74-16.75Q141.91-16.75 141.3-17.03 140.69-17.31 140.22-17.6L140.22-17.6 140.22-21.95Q139.07-22.61 138.12-22.61L138.12-22.61Q135.9-22.61 134.3-21.3 132.7-20 131.85-17.72 130.99-15.45 130.99-12.55L130.99-12.55Q130.99-9.79 131.92-7.51 132.85-5.22 134.69-3.88 136.54-2.54 139.27-2.54L139.27-2.54Q141-2.54 142.59-3.1 144.18-3.66 145.79-4.71ZM172.96-12.01L172.96-12.01Q172.96-8.47 171.49-5.6 170.03-2.73 167.36-1.06 164.68 0.61 161.02 0.61L161.02 0.61Q157.38 0.61 154.72-1.05 152.06-2.71 150.62-5.57 149.18-8.42 149.18-12.01L149.18-12.01Q149.18-15.58 150.63-18.46 152.08-21.34 154.78-23.02 157.48-24.71 161.17-24.71L161.17-24.71Q164.9-24.71 167.54-23 170.18-21.29 171.57-18.41 172.96-15.53 172.96-12.01ZM167.76-12.06L167.76-12.06Q167.76-14.79 167.04-17.16 166.32-19.53 164.84-21 163.36-22.46 161.12-22.46L161.12-22.46Q158.8-22.46 157.32-21 155.84-19.53 155.14-17.16 154.43-14.79 154.43-12.06L154.43-12.06Q154.43-9.35 155.15-6.97 155.87-4.59 157.35-3.13 158.82-1.66 161.07-1.66L161.07-1.66Q163.36-1.66 164.84-3.13 166.32-4.59 167.04-6.96 167.76-9.33 167.76-12.06ZM202.01-1.95L202.01 0 190.97 0 190.97-1.95 193.07-2.1Q193.51-2.15 193.82-2.44 194.12-2.73 194.12-3.2L194.12-3.2 194.12-16.21Q194.12-18.58 193.02-19.81 191.93-21.04 189.31-21.04L189.31-21.04Q187.9-21.04 186.49-20.64 185.09-20.24 183.82-19.6L183.82-19.6 183.82-3.2Q183.82-2.17 184.87-2.1L184.87-2.1 186.97-1.95 186.97 0 175.67 0 175.67-1.95 178.11-2.1Q179.16-2.17 179.16-3.2L179.16-3.2 179.16-20.56 175.67-20.56 175.67-22.19 181.77-24.1 183.82-24.1 183.82-21.61Q185.92-22.8 188.13-23.75 190.34-24.71 192.07-24.71L192.07-24.71Q195.34-24.71 197.05-22.67 198.76-20.63 198.76-16.99L198.76-16.99 198.76-3.2Q198.76-2.73 199.07-2.44 199.37-2.15 199.81-2.1L199.81-2.1 202.01-1.95ZM228.96-24.1L228.96-22.14 226.3-21.85 217.56 0 214.31 0 206.25-21.85 203.5-22.14 203.5-24.1 214.56-24.1 214.56-22.14 212.16-22Q211.36-21.92 211.36-21.19L211.36-21.19Q211.36-21.09 211.41-20.9L211.41-20.9 217-5.25 223.15-20.9Q223.22-21.04 223.22-21.22L223.22-21.22Q223.22-21.95 222.47-22L222.47-22 220.22-22.14 220.22-24.1 228.96-24.1ZM252.25-5.54L252.25-2.49Q250.15-1.2 247.72-0.29 245.29 0.61 242.75 0.61L242.75 0.61Q239.72 0.61 237.07-0.74 234.43-2.1 232.79-4.86 231.15-7.62 231.15-11.79L231.15-11.79Q231.15-15.7 232.67-18.6 234.18-21.51 236.84-23.11 239.5-24.71 242.9-24.71L242.9-24.71Q247.56-24.71 249.9-21.81 252.25-18.92 252.25-14.45L252.25-14.45Q252.25-14.21 252.25-13.81 252.25-13.4 252.2-13.06L252.2-13.06 235.99-13.06Q235.99-11.16 236.39-9.27 236.79-7.37 237.75-5.83 238.7-4.3 240.31-3.37 241.92-2.44 244.34-2.44L244.34-2.44Q246.49-2.44 248.52-3.43 250.56-4.42 252.25-5.54L252.25-5.54ZM236.26-15.31L247.24-15.31 247.24-16.41Q247.24-18.87 246.06-20.56 244.87-22.24 242.38-22.24L242.38-22.24Q239.92-22.24 238.19-20.39 236.45-18.53 236.26-15.31L236.26-15.31ZM281.3-1.95L281.3 0 270.26 0 270.26-1.95 272.36-2.1Q272.8-2.15 273.11-2.44 273.41-2.73 273.41-3.2L273.41-3.2 273.41-16.21Q273.41-18.58 272.31-19.81 271.22-21.04 268.6-21.04L268.6-21.04Q267.19-21.04 265.78-20.64 264.38-20.24 263.11-19.6L263.11-19.6 263.11-3.2Q263.11-2.17 264.16-2.1L264.16-2.1 266.26-1.95 266.26 0 254.96 0 254.96-1.95 257.4-2.1Q258.45-2.17 258.45-3.2L258.45-3.2 258.45-20.56 254.96-20.56 254.96-22.19 261.06-24.1 263.11-24.1 263.11-21.61Q265.21-22.8 267.42-23.75 269.63-24.71 271.36-24.71L271.36-24.71Q274.63-24.71 276.34-22.67 278.05-20.63 278.05-16.99L278.05-16.99 278.05-3.2Q278.05-2.73 278.36-2.44 278.66-2.15 279.1-2.1L279.1-2.1 281.3-1.95ZM293.19-32.35L293.19-32.35Q293.19-31.08 292.31-30.16 291.43-29.25 290.16-29.25L290.16-29.25Q288.89-29.25 287.97-30.16 287.06-31.08 287.06-32.35L287.06-32.35Q287.06-33.64 287.97-34.52 288.89-35.4 290.16-35.4L290.16-35.4Q291.43-35.4 292.31-34.52 293.19-33.64 293.19-32.35ZM295.75-1.95L295.75 0 284.01 0 284.01-1.95 286.45-2.1Q287.5-2.17 287.5-3.2L287.5-3.2 287.5-21.04 284.05-21.04 284.05-22.8 290.16-24.71 292.14-24.71 292.14-3.2Q292.14-2.73 292.44-2.44 292.75-2.15 293.19-2.1L293.19-2.1 295.75-1.95ZM320.26-5.54L320.26-2.49Q318.16-1.2 315.73-0.29 313.3 0.61 310.76 0.61L310.76 0.61Q307.73 0.61 305.08-0.74 302.44-2.1 300.8-4.86 299.16-7.62 299.16-11.79L299.16-11.79Q299.16-15.7 300.68-18.6 302.19-21.51 304.85-23.11 307.51-24.71 310.91-24.71L310.91-24.71Q315.57-24.71 317.91-21.81 320.26-18.92 320.26-14.45L320.26-14.45Q320.26-14.21 320.26-13.81 320.26-13.4 320.21-13.06L320.21-13.06 304-13.06Q304-11.16 304.4-9.27 304.8-7.37 305.76-5.83 306.71-4.3 308.32-3.37 309.93-2.44 312.35-2.44L312.35-2.44Q314.5-2.44 316.53-3.43 318.57-4.42 320.26-5.54L320.26-5.54ZM304.27-15.31L315.25-15.31 315.25-16.41Q315.25-18.87 314.07-20.56 312.89-22.24 310.39-22.24L310.39-22.24Q307.93-22.24 306.2-20.39 304.46-18.53 304.27-15.31L304.27-15.31ZM349.31-1.95L349.31 0 338.27 0 338.27-1.95 340.37-2.1Q340.81-2.15 341.12-2.44 341.42-2.73 341.42-3.2L341.42-3.2 341.42-16.21Q341.42-18.58 340.32-19.81 339.23-21.04 336.61-21.04L336.61-21.04Q335.2-21.04 333.79-20.64 332.39-20.24 331.12-19.6L331.12-19.6 331.12-3.2Q331.12-2.17 332.17-2.1L332.17-2.1 334.27-1.95 334.27 0 322.97 0 322.97-1.95 325.41-2.1Q326.46-2.17 326.46-3.2L326.46-3.2 326.46-20.56 322.97-20.56 322.97-22.19 329.07-24.1 331.12-24.1 331.12-21.61Q333.22-22.8 335.43-23.75 337.64-24.71 339.37-24.71L339.37-24.71Q342.64-24.71 344.35-22.67 346.06-20.63 346.06-16.99L346.06-16.99 346.06-3.2Q346.06-2.73 346.37-2.44 346.67-2.15 347.11-2.1L347.11-2.1 349.31-1.95ZM371.91-4.71L371.91-4.71 371.91-1.86Q370.23-0.95 368.12-0.17 366.01 0.61 363.47 0.61L363.47 0.61Q359.97 0.61 357.4-1.03 354.82-2.66 353.42-5.48 352.02-8.3 352.02-11.89L352.02-11.89Q352.02-16.09 353.69-18.95 355.36-21.8 358.11-23.25 360.85-24.71 364.05-24.71L364.05-24.71Q367.35-24.71 369.58-23.43 371.82-22.14 371.82-19.7L371.82-19.7Q371.82-18.24 370.9-17.49 369.98-16.75 368.86-16.75L368.86-16.75Q368.03-16.75 367.42-17.03 366.81-17.31 366.35-17.6L366.35-17.6 366.35-21.95Q365.2-22.61 364.25-22.61L364.25-22.61Q362.03-22.61 360.43-21.3 358.83-20 357.97-17.72 357.12-15.45 357.12-12.55L357.12-12.55Q357.12-9.79 358.05-7.51 358.97-5.22 360.82-3.88 362.66-2.54 365.39-2.54L365.39-2.54Q367.13-2.54 368.72-3.1 370.3-3.66 371.91-4.71ZM396.4-5.54L396.4-2.49Q394.3-1.2 391.87-0.29 389.44 0.61 386.9 0.61L386.9 0.61Q383.87 0.61 381.22-0.74 378.58-2.1 376.94-4.86 375.3-7.62 375.3-11.79L375.3-11.79Q375.3-15.7 376.82-18.6 378.33-21.51 380.99-23.11 383.65-24.71 387.05-24.71L387.05-24.71Q391.71-24.71 394.05-21.81 396.4-18.92 396.4-14.45L396.4-14.45Q396.4-14.21 396.4-13.81 396.4-13.4 396.35-13.06L396.35-13.06 380.14-13.06Q380.14-11.16 380.54-9.27 380.94-7.37 381.9-5.83 382.85-4.3 384.46-3.37 386.07-2.44 388.49-2.44L388.49-2.44Q390.64-2.44 392.67-3.43 394.71-4.42 396.4-5.54L396.4-5.54ZM380.41-15.31L391.39-15.31 391.39-16.41Q391.39-18.87 390.21-20.56 389.03-22.24 386.53-22.24L386.53-22.24Q384.07-22.24 382.34-20.39 380.6-18.53 380.41-15.31L380.41-15.31Z" opacity="1" transform="matrix(1,0,0,1,0,0)" fill="black" class="slogan-text-1" id="SvgjsPath1365"></path></svg></g></svg></g></svg></g></svg></g></svg></g></svg></g></svg></g><path d="M243.251 58.969L243.251 2.315 0.68 2.315 0.68 244.885 243.251 244.885 243.251 188.231 236.806 188.231 236.806 238.44 7.125 238.44 7.125 8.76 236.806 8.76 236.806 58.969Z" fill="black" stroke="transparent"></path></svg></g><defs><mask></mask></defs></svg><rect width="395.52" height="247.2" fill="black" stroke="none" visibility="hidden"></rect></g></mask><linearGradient x1="0" x2="1" y1="0.578" y2="0.595" id="b3700367-6824-4a14-b4a3-6fb5f6adf07e"><stop stop-color="#dede50" offset="0"></stop><stop stop-color="#559c49" offset="1"></stop></linearGradient><rect width="395.52" height="247.2" fill="#ffffff" mask="url(#d7dac0fb-fad6-4bdd-a460-5732bcd94f17)" data-fill-palette-color="primary"></rect><mask id="6c7ad584-fcb0-4698-9c67-af492e9893b3"><g id="SvgjsG1378"><svg viewBox="0 0 395.52 247.2" height="247.2" width="395.52"><g><svg></svg></g><g><svg viewBox="0 0 395.52 247.2" height="247.2" width="395.52"><g transform="matrix(1,0,0,1,75.54432,64.96869315405387)"><svg viewBox="0 0 244.43135999999998 117.26261369189226" height="117.26261369189226" width="244.43135999999998"><g><svg viewBox="0 0 244.43135999999998 117.26261369189226" height="117.26261369189226" width="244.43135999999998"><g><svg viewBox="0 0 244.43136 117.26261369189227" height="117.26261369189226" width="244.43135999999998"><g><svg viewBox="0 0 244.43136 117.26261369189227" height="117.26261369189227" width="244.43136"><g id="SvgjsG1377"><svg viewBox="0 0 244.43136 117.26261369189227" height="117.26261369189227" width="244.43136" id="SvgjsSvg1376"><g><svg viewBox="0 0 244.43136 71.46825551269036" height="71.46825551269036" width="244.43136"><g transform="matrix(1,0,0,1,0,0)"><svg width="244.43136" viewBox="2.25 -34.86 120.22 35.15" height="71.46825551269036" data-palette-color="url(#b3700367-6824-4a14-b4a3-6fb5f6adf07e)"></svg></g></svg></g><g transform="matrix(1,0,0,1,0,88.34019540110425)"><svg viewBox="0 0 244.43136 28.922418290788016" height="28.922418290788016" width="244.43136"><g transform="matrix(1,0,0,1,0,0)"><svg width="244.43136" viewBox="0.49 -35.4 395.90999999999997 46.849999999999994" height="28.922418290788016" data-palette-color="url(#3bf35124-dd43-4ba5-98c4-c8089a39de58)"><path d="M26-24.1L26-22.14 23.39-21.85 13.79 1.54Q13.48 2.34 12.81 3.85 12.13 5.35 11.22 6.92 10.3 8.5 9.25 9.55L9.25 9.55Q8.35 10.45 7.26 10.95 6.18 11.45 4.91 11.45L4.91 11.45Q3.13 11.45 2.19 10.58 1.25 9.72 1.25 8.59L1.25 8.59Q1.25 6.93 2.86 5.59L2.86 5.59 7.54 7.74Q8.37 6.91 9.2 5.49 10.03 4.08 10.71 2.56 11.38 1.05 11.74-0.05L11.74-0.05 3.25-21.85 0.49-22.14 0.49-24.1 11.55-24.1 11.55-22.14 9.16-22Q8.35-21.92 8.35-21.19L8.35-21.19Q8.35-21 8.4-20.9L8.4-20.9 14.21-6.15 20.14-20.9Q20.21-21.04 20.21-21.22L20.21-21.22Q20.21-21.95 19.46-22L19.46-22 17.09-22.14 17.09-24.1 26-24.1ZM51.98-12.01L51.98-12.01Q51.98-8.47 50.51-5.6 49.05-2.73 46.37-1.06 43.7 0.61 40.04 0.61L40.04 0.61Q36.4 0.61 33.74-1.05 31.08-2.71 29.64-5.57 28.2-8.42 28.2-12.01L28.2-12.01Q28.2-15.58 29.65-18.46 31.1-21.34 33.8-23.02 36.5-24.71 40.18-24.71L40.18-24.71Q43.92-24.71 46.56-23 49.19-21.29 50.58-18.41 51.98-15.53 51.98-12.01ZM46.77-12.06L46.77-12.06Q46.77-14.79 46.05-17.16 45.33-19.53 43.86-21 42.38-22.46 40.13-22.46L40.13-22.46Q37.81-22.46 36.34-21 34.86-19.53 34.15-17.16 33.44-14.79 33.44-12.06L33.44-12.06Q33.44-9.35 34.16-6.97 34.89-4.59 36.36-3.13 37.84-1.66 40.09-1.66L40.09-1.66Q42.38-1.66 43.86-3.13 45.33-4.59 46.05-6.96 46.77-9.33 46.77-12.06ZM81.07-1.95L81.07 0 73.14 0 73.14-2.86Q72.29-2.2 70.97-1.39 69.65-0.59 68.13 0.01 66.62 0.61 65.13 0.61L65.13 0.61Q61.91 0.61 60.07-1.33 58.22-3.27 58.22-7.5L58.22-7.5 58.22-21.04 54.73-21.04 54.73-22.75 60.88-24.71 62.89-24.71 62.89-8.45Q62.89-5.79 63.97-4.3 65.06-2.81 67.72-2.81L67.72-2.81Q69.26-2.81 70.75-3.33 72.24-3.86 73.14-4.3L73.14-4.3 73.14-21.04 69.62-21.04 69.62-22.75 75.73-24.71 77.78-24.71 77.78-3.2Q77.78-2.73 78.11-2.44 78.44-2.15 78.88-2.1L78.88-2.1 81.07-1.95ZM101.16-23.95L101.16-18.99 99.21-18.99Q98.75-19.56 98.1-19.96 97.45-20.36 96.53-20.36L96.53-20.36Q95.33-20.36 94.07-19.53 92.81-18.7 91.52-17.26L91.52-17.26 91.52-3.2Q91.52-2.15 92.57-2.1L92.57-2.1 95.87-1.95 95.87 0 83.37 0 83.37-1.9 85.83-2.1Q86.27-2.15 86.58-2.44 86.88-2.73 86.88-3.2L86.88-3.2 86.88-20.56 83.27-20.56 83.27-22.19 89.47-24.1 91.52-24.1 91.52-19.65Q92.25-20.46 93.35-21.66 94.45-22.85 95.7-23.78 96.94-24.71 98.11-24.71L98.11-24.71Q98.89-24.71 99.8-24.46 100.7-24.22 101.16-23.95L101.16-23.95ZM145.79-4.71L145.79-4.71 145.79-1.86Q144.1-0.95 141.99-0.17 139.88 0.61 137.34 0.61L137.34 0.61Q133.85 0.61 131.27-1.03 128.7-2.66 127.29-5.48 125.89-8.3 125.89-11.89L125.89-11.89Q125.89-16.09 127.56-18.95 129.24-21.8 131.98-23.25 134.73-24.71 137.93-24.71L137.93-24.71Q141.22-24.71 143.46-23.43 145.69-22.14 145.69-19.7L145.69-19.7Q145.69-18.24 144.78-17.49 143.86-16.75 142.74-16.75L142.74-16.75Q141.91-16.75 141.3-17.03 140.69-17.31 140.22-17.6L140.22-17.6 140.22-21.95Q139.07-22.61 138.12-22.61L138.12-22.61Q135.9-22.61 134.3-21.3 132.7-20 131.85-17.72 130.99-15.45 130.99-12.55L130.99-12.55Q130.99-9.79 131.92-7.51 132.85-5.22 134.69-3.88 136.54-2.54 139.27-2.54L139.27-2.54Q141-2.54 142.59-3.1 144.18-3.66 145.79-4.71ZM172.96-12.01L172.96-12.01Q172.96-8.47 171.49-5.6 170.03-2.73 167.36-1.06 164.68 0.61 161.02 0.61L161.02 0.61Q157.38 0.61 154.72-1.05 152.06-2.71 150.62-5.57 149.18-8.42 149.18-12.01L149.18-12.01Q149.18-15.58 150.63-18.46 152.08-21.34 154.78-23.02 157.48-24.71 161.17-24.71L161.17-24.71Q164.9-24.71 167.54-23 170.18-21.29 171.57-18.41 172.96-15.53 172.96-12.01ZM167.76-12.06L167.76-12.06Q167.76-14.79 167.04-17.16 166.32-19.53 164.84-21 163.36-22.46 161.12-22.46L161.12-22.46Q158.8-22.46 157.32-21 155.84-19.53 155.14-17.16 154.43-14.79 154.43-12.06L154.43-12.06Q154.43-9.35 155.15-6.97 155.87-4.59 157.35-3.13 158.82-1.66 161.07-1.66L161.07-1.66Q163.36-1.66 164.84-3.13 166.32-4.59 167.04-6.96 167.76-9.33 167.76-12.06ZM202.01-1.95L202.01 0 190.97 0 190.97-1.95 193.07-2.1Q193.51-2.15 193.82-2.44 194.12-2.73 194.12-3.2L194.12-3.2 194.12-16.21Q194.12-18.58 193.02-19.81 191.93-21.04 189.31-21.04L189.31-21.04Q187.9-21.04 186.49-20.64 185.09-20.24 183.82-19.6L183.82-19.6 183.82-3.2Q183.82-2.17 184.87-2.1L184.87-2.1 186.97-1.95 186.97 0 175.67 0 175.67-1.95 178.11-2.1Q179.16-2.17 179.16-3.2L179.16-3.2 179.16-20.56 175.67-20.56 175.67-22.19 181.77-24.1 183.82-24.1 183.82-21.61Q185.92-22.8 188.13-23.75 190.34-24.71 192.07-24.71L192.07-24.71Q195.34-24.71 197.05-22.67 198.76-20.63 198.76-16.99L198.76-16.99 198.76-3.2Q198.76-2.73 199.07-2.44 199.37-2.15 199.81-2.1L199.81-2.1 202.01-1.95ZM228.96-24.1L228.96-22.14 226.3-21.85 217.56 0 214.31 0 206.25-21.85 203.5-22.14 203.5-24.1 214.56-24.1 214.56-22.14 212.16-22Q211.36-21.92 211.36-21.19L211.36-21.19Q211.36-21.09 211.41-20.9L211.41-20.9 217-5.25 223.15-20.9Q223.22-21.04 223.22-21.22L223.22-21.22Q223.22-21.95 222.47-22L222.47-22 220.22-22.14 220.22-24.1 228.96-24.1ZM252.25-5.54L252.25-2.49Q250.15-1.2 247.72-0.29 245.29 0.61 242.75 0.61L242.75 0.61Q239.72 0.61 237.07-0.74 234.43-2.1 232.79-4.86 231.15-7.62 231.15-11.79L231.15-11.79Q231.15-15.7 232.67-18.6 234.18-21.51 236.84-23.11 239.5-24.71 242.9-24.71L242.9-24.71Q247.56-24.71 249.9-21.81 252.25-18.92 252.25-14.45L252.25-14.45Q252.25-14.21 252.25-13.81 252.25-13.4 252.2-13.06L252.2-13.06 235.99-13.06Q235.99-11.16 236.39-9.27 236.79-7.37 237.75-5.83 238.7-4.3 240.31-3.37 241.92-2.44 244.34-2.44L244.34-2.44Q246.49-2.44 248.52-3.43 250.56-4.42 252.25-5.54L252.25-5.54ZM236.26-15.31L247.24-15.31 247.24-16.41Q247.24-18.87 246.06-20.56 244.87-22.24 242.38-22.24L242.38-22.24Q239.92-22.24 238.19-20.39 236.45-18.53 236.26-15.31L236.26-15.31ZM281.3-1.95L281.3 0 270.26 0 270.26-1.95 272.36-2.1Q272.8-2.15 273.11-2.44 273.41-2.73 273.41-3.2L273.41-3.2 273.41-16.21Q273.41-18.58 272.31-19.81 271.22-21.04 268.6-21.04L268.6-21.04Q267.19-21.04 265.78-20.64 264.38-20.24 263.11-19.6L263.11-19.6 263.11-3.2Q263.11-2.17 264.16-2.1L264.16-2.1 266.26-1.95 266.26 0 254.96 0 254.96-1.95 257.4-2.1Q258.45-2.17 258.45-3.2L258.45-3.2 258.45-20.56 254.96-20.56 254.96-22.19 261.06-24.1 263.11-24.1 263.11-21.61Q265.21-22.8 267.42-23.75 269.63-24.71 271.36-24.71L271.36-24.71Q274.63-24.71 276.34-22.67 278.05-20.63 278.05-16.99L278.05-16.99 278.05-3.2Q278.05-2.73 278.36-2.44 278.66-2.15 279.1-2.1L279.1-2.1 281.3-1.95ZM293.19-32.35L293.19-32.35Q293.19-31.08 292.31-30.16 291.43-29.25 290.16-29.25L290.16-29.25Q288.89-29.25 287.97-30.16 287.06-31.08 287.06-32.35L287.06-32.35Q287.06-33.64 287.97-34.52 288.89-35.4 290.16-35.4L290.16-35.4Q291.43-35.4 292.31-34.52 293.19-33.64 293.19-32.35ZM295.75-1.95L295.75 0 284.01 0 284.01-1.95 286.45-2.1Q287.5-2.17 287.5-3.2L287.5-3.2 287.5-21.04 284.05-21.04 284.05-22.8 290.16-24.71 292.14-24.71 292.14-3.2Q292.14-2.73 292.44-2.44 292.75-2.15 293.19-2.1L293.19-2.1 295.75-1.95ZM320.26-5.54L320.26-2.49Q318.16-1.2 315.73-0.29 313.3 0.61 310.76 0.61L310.76 0.61Q307.73 0.61 305.08-0.74 302.44-2.1 300.8-4.86 299.16-7.62 299.16-11.79L299.16-11.79Q299.16-15.7 300.68-18.6 302.19-21.51 304.85-23.11 307.51-24.71 310.91-24.71L310.91-24.71Q315.57-24.71 317.91-21.81 320.26-18.92 320.26-14.45L320.26-14.45Q320.26-14.21 320.26-13.81 320.26-13.4 320.21-13.06L320.21-13.06 304-13.06Q304-11.16 304.4-9.27 304.8-7.37 305.76-5.83 306.71-4.3 308.32-3.37 309.93-2.44 312.35-2.44L312.35-2.44Q314.5-2.44 316.53-3.43 318.57-4.42 320.26-5.54L320.26-5.54ZM304.27-15.31L315.25-15.31 315.25-16.41Q315.25-18.87 314.07-20.56 312.89-22.24 310.39-22.24L310.39-22.24Q307.93-22.24 306.2-20.39 304.46-18.53 304.27-15.31L304.27-15.31ZM349.31-1.95L349.31 0 338.27 0 338.27-1.95 340.37-2.1Q340.81-2.15 341.12-2.44 341.42-2.73 341.42-3.2L341.42-3.2 341.42-16.21Q341.42-18.58 340.32-19.81 339.23-21.04 336.61-21.04L336.61-21.04Q335.2-21.04 333.79-20.64 332.39-20.24 331.12-19.6L331.12-19.6 331.12-3.2Q331.12-2.17 332.17-2.1L332.17-2.1 334.27-1.95 334.27 0 322.97 0 322.97-1.95 325.41-2.1Q326.46-2.17 326.46-3.2L326.46-3.2 326.46-20.56 322.97-20.56 322.97-22.19 329.07-24.1 331.12-24.1 331.12-21.61Q333.22-22.8 335.43-23.75 337.64-24.71 339.37-24.71L339.37-24.71Q342.64-24.71 344.35-22.67 346.06-20.63 346.06-16.99L346.06-16.99 346.06-3.2Q346.06-2.73 346.37-2.44 346.67-2.15 347.11-2.1L347.11-2.1 349.31-1.95ZM371.91-4.71L371.91-4.71 371.91-1.86Q370.23-0.95 368.12-0.17 366.01 0.61 363.47 0.61L363.47 0.61Q359.97 0.61 357.4-1.03 354.82-2.66 353.42-5.48 352.02-8.3 352.02-11.89L352.02-11.89Q352.02-16.09 353.69-18.95 355.36-21.8 358.11-23.25 360.85-24.71 364.05-24.71L364.05-24.71Q367.35-24.71 369.58-23.43 371.82-22.14 371.82-19.7L371.82-19.7Q371.82-18.24 370.9-17.49 369.98-16.75 368.86-16.75L368.86-16.75Q368.03-16.75 367.42-17.03 366.81-17.31 366.35-17.6L366.35-17.6 366.35-21.95Q365.2-22.61 364.25-22.61L364.25-22.61Q362.03-22.61 360.43-21.3 358.83-20 357.97-17.72 357.12-15.45 357.12-12.55L357.12-12.55Q357.12-9.79 358.05-7.51 358.97-5.22 360.82-3.88 362.66-2.54 365.39-2.54L365.39-2.54Q367.13-2.54 368.72-3.1 370.3-3.66 371.91-4.71ZM396.4-5.54L396.4-2.49Q394.3-1.2 391.87-0.29 389.44 0.61 386.9 0.61L386.9 0.61Q383.87 0.61 381.22-0.74 378.58-2.1 376.94-4.86 375.3-7.62 375.3-11.79L375.3-11.79Q375.3-15.7 376.82-18.6 378.33-21.51 380.99-23.11 383.65-24.71 387.05-24.71L387.05-24.71Q391.71-24.71 394.05-21.81 396.4-18.92 396.4-14.45L396.4-14.45Q396.4-14.21 396.4-13.81 396.4-13.4 396.35-13.06L396.35-13.06 380.14-13.06Q380.14-11.16 380.54-9.27 380.94-7.37 381.9-5.83 382.85-4.3 384.46-3.37 386.07-2.44 388.49-2.44L388.49-2.44Q390.64-2.44 392.67-3.43 394.71-4.42 396.4-5.54L396.4-5.54ZM380.41-15.31L391.39-15.31 391.39-16.41Q391.39-18.87 390.21-20.56 389.03-22.24 386.53-22.24L386.53-22.24Q384.07-22.24 382.34-20.39 380.6-18.53 380.41-15.31L380.41-15.31Z" opacity="1" transform="matrix(1,0,0,1,0,0)" fill="white" class="slogan-text-1" id="SvgjsPath1375"></path></svg></g></svg></g></svg></g></svg></g></svg></g></svg></g></svg></g><path d="M243.251 58.969L243.251 2.315 0.68 2.315 0.68 244.885 243.251 244.885 243.251 188.231 236.806 188.231 236.806 238.44 7.125 238.44 7.125 8.76 236.806 8.76 236.806 58.969Z" fill="black" stroke="transparent"></path></svg></g><defs><mask></mask></defs><mask><g id="SvgjsG1374"><svg viewBox="0 0 395.52 247.2" height="247.2" width="395.52"><g><svg></svg></g><g><svg viewBox="0 0 395.52 247.2" height="247.2" width="395.52"><g transform="matrix(1,0,0,1,75.54432,64.96869315405387)"><svg viewBox="0 0 244.43135999999998 117.26261369189226" height="117.26261369189226" width="244.43135999999998"><g><svg viewBox="0 0 244.43135999999998 117.26261369189226" height="117.26261369189226" width="244.43135999999998"><g><svg viewBox="0 0 244.43136 117.26261369189227" height="117.26261369189226" width="244.43135999999998"><g><svg viewBox="0 0 244.43136 117.26261369189227" height="117.26261369189227" width="244.43136"><g id="SvgjsG1373"><svg viewBox="0 0 244.43136 117.26261369189227" height="117.26261369189227" width="244.43136" id="SvgjsSvg1372"><g><svg viewBox="0 0 244.43136 71.46825551269036" height="71.46825551269036" width="244.43136"><g transform="matrix(1,0,0,1,0,0)"><svg width="244.43136" viewBox="2.25 -34.86 120.22 35.15" height="71.46825551269036" data-palette-color="url(#b3700367-6824-4a14-b4a3-6fb5f6adf07e)"><path d="M10.79 0L10.79 0 2.25 0 2.25-34.86 10.91-34.86Q15.45-34.86 17.49-33.4 19.53-31.93 19.6-28.54L19.6-28.54Q19.73-24.58 19.76-21.02 19.8-17.46 19.76-13.89 19.73-10.33 19.6-6.35L19.6-6.35Q19.53-2.95 17.48-1.48 15.43 0 10.79 0ZM10.91-31.74L5.64-31.74 5.64-3.13 10.79-3.13Q13.65-3.13 14.92-3.83 16.19-4.54 16.21-5.98L16.21-5.98Q16.58-17.43 16.21-28.93L16.21-28.93Q16.19-30.37 14.93-31.05 13.67-31.74 10.91-31.74L10.91-31.74ZM27.39-10.74L27.39 0 23.92 0 23.92-34.86 27.49-34.86 27.49-26.59 27.05-17.87 28.02-17.87 32.35-27.25 35.81-34.86 39.57-34.86 31.93-19.48 40.45 0 36.86 0 29.78-15.38 27.39-10.74ZM51.19-31.74L51.19 0 47.8 0 47.8-31.74 41.13-31.74 41.13-34.86 57.88-34.86 57.88-31.74 51.19-31.74ZM67.72 0.29L67.72 0.29Q63.69 0.29 61.97-0.98 60.25-2.25 60.12-5.13L60.12-5.13Q60.03-6.93 59.99-9.38 59.95-11.82 59.99-14.28 60.03-16.75 60.12-18.58L60.12-18.58Q60.25-21.53 62.02-22.8 63.79-24.07 67.72-24.07L67.72-24.07Q71.43-24.07 73.09-22.83 74.75-21.58 74.92-18.73L74.92-18.73Q74.97-17.87 75.02-15.75 75.07-13.62 74.87-11.23L74.87-11.23 63.18-11.23Q63.18-9.69 63.2-8.11 63.22-6.52 63.3-4.81L63.3-4.81Q63.32-3.47 64.32-2.95 65.32-2.44 67.62-2.44L67.62-2.44Q69.89-2.44 70.82-2.95 71.75-3.47 71.84-4.81L71.84-4.81Q71.92-6.15 71.84-8.47L71.84-8.47 74.87-8.47Q74.99-7.76 74.98-6.82 74.97-5.88 74.92-5.13L74.92-5.13Q74.75-2.25 73.17-0.98 71.6 0.29 67.72 0.29ZM63.18-13.82L63.18-13.82 71.89-13.82Q71.94-15.48 71.94-16.99 71.94-18.51 71.84-19.07L71.84-19.07Q71.75-20.29 70.79-20.81 69.84-21.34 67.72-21.34L67.72-21.34Q65.35-21.34 64.34-20.81 63.32-20.29 63.3-19.07L63.3-19.07Q63.22-17.65 63.19-16.36 63.15-15.06 63.18-13.82ZM84.54 0.27L84.54 0.27Q81.56 0.27 80.13-0.9 78.7-2.08 78.46-4.57L78.46-4.57Q78.43-5.05 78.4-5.54 78.36-6.03 78.41-6.49L78.41-6.49Q78.58-8.67 79.78-10.14 80.97-11.62 84.32-12.84L84.32-12.84Q85.68-13.33 87.2-13.72 88.71-14.11 90.2-14.48L90.2-14.48 90.2-18.99Q90.2-20.19 89.3-20.76 88.39-21.34 86.15-21.34L86.15-21.34Q84.19-21.34 83.18-20.85 82.17-20.36 82.07-19.07L82.07-19.07Q82.02-18.46 82.02-17.32 82.02-16.19 82.07-15.41L82.07-15.41 79.02-15.41Q78.97-16.02 78.92-16.99 78.87-17.97 78.95-18.73L78.95-18.73Q79.07-21.56 80.79-22.81 82.51-24.07 86.27-24.07L86.27-24.07Q90.2-24.07 91.73-22.71 93.25-21.34 93.28-18.21L93.28-18.21 93.28 0 90.2 0 90.2-2.25 89.52-2.25Q88.91-1.03 87.77-0.38 86.64 0.27 84.54 0.27ZM85.32-2.37L85.32-2.37Q88.83-2.37 90.18-4.47L90.18-4.47 90.18-11.87Q89-11.62 87.77-11.29 86.54-10.96 84.88-10.4L84.88-10.4Q82.9-9.67 82.24-8.72 81.58-7.76 81.48-6.49L81.48-6.49Q81.51-6.13 81.52-5.7 81.53-5.27 81.58-4.81L81.58-4.81Q81.75-3.64 82.75-3 83.75-2.37 85.32-2.37ZM100.92-19.19L100.92 0 97.77 0 97.77-23.75 100.92-23.75 100.92-21.53 101.53-21.53Q102.36-22.83 103.47-23.45 104.58-24.07 106.53-24.07L106.53-24.07Q110.46-24.07 111.36-21.34L111.36-21.34 112.02-21.34Q112.83-22.61 114.07-23.34 115.32-24.07 117.27-24.07L117.27-24.07Q119.88-24.07 121.18-22.86 122.47-21.66 122.47-18.82L122.47-18.82 122.47 0 119.35 0 119.35-19.09Q119.3-20.31 118.59-20.86 117.88-21.41 116.25-21.41L116.25-21.41Q113-21.41 111.73-19.12L111.73-19.12 111.73 0 108.61 0 108.61-19.09Q108.56-20.31 107.85-20.86 107.14-21.41 105.55-21.41L105.55-21.41Q102.09-21.41 100.92-19.19L100.92-19.19Z" opacity="1" transform="matrix(1,0,0,1,0,0)" fill="black" class="wordmark-text-0" id="SvgjsPath1371"></path></svg></g></svg></g><g transform="matrix(1,0,0,1,0,88.34019540110425)"><svg viewBox="0 0 244.43136 28.922418290788016" height="28.922418290788016" width="244.43136"><g transform="matrix(1,0,0,1,0,0)"><svg width="244.43136" viewBox="0.49 -35.4 395.90999999999997 46.849999999999994" height="28.922418290788016" data-palette-color="url(#3bf35124-dd43-4ba5-98c4-c8089a39de58)"><path d="M26-24.1L26-22.14 23.39-21.85 13.79 1.54Q13.48 2.34 12.81 3.85 12.13 5.35 11.22 6.92 10.3 8.5 9.25 9.55L9.25 9.55Q8.35 10.45 7.26 10.95 6.18 11.45 4.91 11.45L4.91 11.45Q3.13 11.45 2.19 10.58 1.25 9.72 1.25 8.59L1.25 8.59Q1.25 6.93 2.86 5.59L2.86 5.59 7.54 7.74Q8.37 6.91 9.2 5.49 10.03 4.08 10.71 2.56 11.38 1.05 11.74-0.05L11.74-0.05 3.25-21.85 0.49-22.14 0.49-24.1 11.55-24.1 11.55-22.14 9.16-22Q8.35-21.92 8.35-21.19L8.35-21.19Q8.35-21 8.4-20.9L8.4-20.9 14.21-6.15 20.14-20.9Q20.21-21.04 20.21-21.22L20.21-21.22Q20.21-21.95 19.46-22L19.46-22 17.09-22.14 17.09-24.1 26-24.1ZM51.98-12.01L51.98-12.01Q51.98-8.47 50.51-5.6 49.05-2.73 46.37-1.06 43.7 0.61 40.04 0.61L40.04 0.61Q36.4 0.61 33.74-1.05 31.08-2.71 29.64-5.57 28.2-8.42 28.2-12.01L28.2-12.01Q28.2-15.58 29.65-18.46 31.1-21.34 33.8-23.02 36.5-24.71 40.18-24.71L40.18-24.71Q43.92-24.71 46.56-23 49.19-21.29 50.58-18.41 51.98-15.53 51.98-12.01ZM46.77-12.06L46.77-12.06Q46.77-14.79 46.05-17.16 45.33-19.53 43.86-21 42.38-22.46 40.13-22.46L40.13-22.46Q37.81-22.46 36.34-21 34.86-19.53 34.15-17.16 33.44-14.79 33.44-12.06L33.44-12.06Q33.44-9.35 34.16-6.97 34.89-4.59 36.36-3.13 37.84-1.66 40.09-1.66L40.09-1.66Q42.38-1.66 43.86-3.13 45.33-4.59 46.05-6.96 46.77-9.33 46.77-12.06ZM81.07-1.95L81.07 0 73.14 0 73.14-2.86Q72.29-2.2 70.97-1.39 69.65-0.59 68.13 0.01 66.62 0.61 65.13 0.61L65.13 0.61Q61.91 0.61 60.07-1.33 58.22-3.27 58.22-7.5L58.22-7.5 58.22-21.04 54.73-21.04 54.73-22.75 60.88-24.71 62.89-24.71 62.89-8.45Q62.89-5.79 63.97-4.3 65.06-2.81 67.72-2.81L67.72-2.81Q69.26-2.81 70.75-3.33 72.24-3.86 73.14-4.3L73.14-4.3 73.14-21.04 69.62-21.04 69.62-22.75 75.73-24.71 77.78-24.71 77.78-3.2Q77.78-2.73 78.11-2.44 78.44-2.15 78.88-2.1L78.88-2.1 81.07-1.95ZM101.16-23.95L101.16-18.99 99.21-18.99Q98.75-19.56 98.1-19.96 97.45-20.36 96.53-20.36L96.53-20.36Q95.33-20.36 94.07-19.53 92.81-18.7 91.52-17.26L91.52-17.26 91.52-3.2Q91.52-2.15 92.57-2.1L92.57-2.1 95.87-1.95 95.87 0 83.37 0 83.37-1.9 85.83-2.1Q86.27-2.15 86.58-2.44 86.88-2.73 86.88-3.2L86.88-3.2 86.88-20.56 83.27-20.56 83.27-22.19 89.47-24.1 91.52-24.1 91.52-19.65Q92.25-20.46 93.35-21.66 94.45-22.85 95.7-23.78 96.94-24.71 98.11-24.71L98.11-24.71Q98.89-24.71 99.8-24.46 100.7-24.22 101.16-23.95L101.16-23.95ZM145.79-4.71L145.79-4.71 145.79-1.86Q144.1-0.95 141.99-0.17 139.88 0.61 137.34 0.61L137.34 0.61Q133.85 0.61 131.27-1.03 128.7-2.66 127.29-5.48 125.89-8.3 125.89-11.89L125.89-11.89Q125.89-16.09 127.56-18.95 129.24-21.8 131.98-23.25 134.73-24.71 137.93-24.71L137.93-24.71Q141.22-24.71 143.46-23.43 145.69-22.14 145.69-19.7L145.69-19.7Q145.69-18.24 144.78-17.49 143.86-16.75 142.74-16.75L142.74-16.75Q141.91-16.75 141.3-17.03 140.69-17.31 140.22-17.6L140.22-17.6 140.22-21.95Q139.07-22.61 138.12-22.61L138.12-22.61Q135.9-22.61 134.3-21.3 132.7-20 131.85-17.72 130.99-15.45 130.99-12.55L130.99-12.55Q130.99-9.79 131.92-7.51 132.85-5.22 134.69-3.88 136.54-2.54 139.27-2.54L139.27-2.54Q141-2.54 142.59-3.1 144.18-3.66 145.79-4.71ZM172.96-12.01L172.96-12.01Q172.96-8.47 171.49-5.6 170.03-2.73 167.36-1.06 164.68 0.61 161.02 0.61L161.02 0.61Q157.38 0.61 154.72-1.05 152.06-2.71 150.62-5.57 149.18-8.42 149.18-12.01L149.18-12.01Q149.18-15.58 150.63-18.46 152.08-21.34 154.78-23.02 157.48-24.71 161.17-24.71L161.17-24.71Q164.9-24.71 167.54-23 170.18-21.29 171.57-18.41 172.96-15.53 172.96-12.01ZM167.76-12.06L167.76-12.06Q167.76-14.79 167.04-17.16 166.32-19.53 164.84-21 163.36-22.46 161.12-22.46L161.12-22.46Q158.8-22.46 157.32-21 155.84-19.53 155.14-17.16 154.43-14.79 154.43-12.06L154.43-12.06Q154.43-9.35 155.15-6.97 155.87-4.59 157.35-3.13 158.82-1.66 161.07-1.66L161.07-1.66Q163.36-1.66 164.84-3.13 166.32-4.59 167.04-6.96 167.76-9.33 167.76-12.06ZM202.01-1.95L202.01 0 190.97 0 190.97-1.95 193.07-2.1Q193.51-2.15 193.82-2.44 194.12-2.73 194.12-3.2L194.12-3.2 194.12-16.21Q194.12-18.58 193.02-19.81 191.93-21.04 189.31-21.04L189.31-21.04Q187.9-21.04 186.49-20.64 185.09-20.24 183.82-19.6L183.82-19.6 183.82-3.2Q183.82-2.17 184.87-2.1L184.87-2.1 186.97-1.95 186.97 0 175.67 0 175.67-1.95 178.11-2.1Q179.16-2.17 179.16-3.2L179.16-3.2 179.16-20.56 175.67-20.56 175.67-22.19 181.77-24.1 183.82-24.1 183.82-21.61Q185.92-22.8 188.13-23.75 190.34-24.71 192.07-24.71L192.07-24.71Q195.34-24.71 197.05-22.67 198.76-20.63 198.76-16.99L198.76-16.99 198.76-3.2Q198.76-2.73 199.07-2.44 199.37-2.15 199.81-2.1L199.81-2.1 202.01-1.95ZM228.96-24.1L228.96-22.14 226.3-21.85 217.56 0 214.31 0 206.25-21.85 203.5-22.14 203.5-24.1 214.56-24.1 214.56-22.14 212.16-22Q211.36-21.92 211.36-21.19L211.36-21.19Q211.36-21.09 211.41-20.9L211.41-20.9 217-5.25 223.15-20.9Q223.22-21.04 223.22-21.22L223.22-21.22Q223.22-21.95 222.47-22L222.47-22 220.22-22.14 220.22-24.1 228.96-24.1ZM252.25-5.54L252.25-2.49Q250.15-1.2 247.72-0.29 245.29 0.61 242.75 0.61L242.75 0.61Q239.72 0.61 237.07-0.74 234.43-2.1 232.79-4.86 231.15-7.62 231.15-11.79L231.15-11.79Q231.15-15.7 232.67-18.6 234.18-21.51 236.84-23.11 239.5-24.71 242.9-24.71L242.9-24.71Q247.56-24.71 249.9-21.81 252.25-18.92 252.25-14.45L252.25-14.45Q252.25-14.21 252.25-13.81 252.25-13.4 252.2-13.06L252.2-13.06 235.99-13.06Q235.99-11.16 236.39-9.27 236.79-7.37 237.75-5.83 238.7-4.3 240.31-3.37 241.92-2.44 244.34-2.44L244.34-2.44Q246.49-2.44 248.52-3.43 250.56-4.42 252.25-5.54L252.25-5.54ZM236.26-15.31L247.24-15.31 247.24-16.41Q247.24-18.87 246.06-20.56 244.87-22.24 242.38-22.24L242.38-22.24Q239.92-22.24 238.19-20.39 236.45-18.53 236.26-15.31L236.26-15.31ZM281.3-1.95L281.3 0 270.26 0 270.26-1.95 272.36-2.1Q272.8-2.15 273.11-2.44 273.41-2.73 273.41-3.2L273.41-3.2 273.41-16.21Q273.41-18.58 272.31-19.81 271.22-21.04 268.6-21.04L268.6-21.04Q267.19-21.04 265.78-20.64 264.38-20.24 263.11-19.6L263.11-19.6 263.11-3.2Q263.11-2.17 264.16-2.1L264.16-2.1 266.26-1.95 266.26 0 254.96 0 254.96-1.95 257.4-2.1Q258.45-2.17 258.45-3.2L258.45-3.2 258.45-20.56 254.96-20.56 254.96-22.19 261.06-24.1 263.11-24.1 263.11-21.61Q265.21-22.8 267.42-23.75 269.63-24.71 271.36-24.71L271.36-24.71Q274.63-24.71 276.34-22.67 278.05-20.63 278.05-16.99L278.05-16.99 278.05-3.2Q278.05-2.73 278.36-2.44 278.66-2.15 279.1-2.1L279.1-2.1 281.3-1.95ZM293.19-32.35L293.19-32.35Q293.19-31.08 292.31-30.16 291.43-29.25 290.16-29.25L290.16-29.25Q288.89-29.25 287.97-30.16 287.06-31.08 287.06-32.35L287.06-32.35Q287.06-33.64 287.97-34.52 288.89-35.4 290.16-35.4L290.16-35.4Q291.43-35.4 292.31-34.52 293.19-33.64 293.19-32.35ZM295.75-1.95L295.75 0 284.01 0 284.01-1.95 286.45-2.1Q287.5-2.17 287.5-3.2L287.5-3.2 287.5-21.04 284.05-21.04 284.05-22.8 290.16-24.71 292.14-24.71 292.14-3.2Q292.14-2.73 292.44-2.44 292.75-2.15 293.19-2.1L293.19-2.1 295.75-1.95ZM320.26-5.54L320.26-2.49Q318.16-1.2 315.73-0.29 313.3 0.61 310.76 0.61L310.76 0.61Q307.73 0.61 305.08-0.74 302.44-2.1 300.8-4.86 299.16-7.62 299.16-11.79L299.16-11.79Q299.16-15.7 300.68-18.6 302.19-21.51 304.85-23.11 307.51-24.71 310.91-24.71L310.91-24.71Q315.57-24.71 317.91-21.81 320.26-18.92 320.26-14.45L320.26-14.45Q320.26-14.21 320.26-13.81 320.26-13.4 320.21-13.06L320.21-13.06 304-13.06Q304-11.16 304.4-9.27 304.8-7.37 305.76-5.83 306.71-4.3 308.32-3.37 309.93-2.44 312.35-2.44L312.35-2.44Q314.5-2.44 316.53-3.43 318.57-4.42 320.26-5.54L320.26-5.54ZM304.27-15.31L315.25-15.31 315.25-16.41Q315.25-18.87 314.07-20.56 312.89-22.24 310.39-22.24L310.39-22.24Q307.93-22.24 306.2-20.39 304.46-18.53 304.27-15.31L304.27-15.31ZM349.31-1.95L349.31 0 338.27 0 338.27-1.95 340.37-2.1Q340.81-2.15 341.12-2.44 341.42-2.73 341.42-3.2L341.42-3.2 341.42-16.21Q341.42-18.58 340.32-19.81 339.23-21.04 336.61-21.04L336.61-21.04Q335.2-21.04 333.79-20.64 332.39-20.24 331.12-19.6L331.12-19.6 331.12-3.2Q331.12-2.17 332.17-2.1L332.17-2.1 334.27-1.95 334.27 0 322.97 0 322.97-1.95 325.41-2.1Q326.46-2.17 326.46-3.2L326.46-3.2 326.46-20.56 322.97-20.56 322.97-22.19 329.07-24.1 331.12-24.1 331.12-21.61Q333.22-22.8 335.43-23.75 337.64-24.71 339.37-24.71L339.37-24.71Q342.64-24.71 344.35-22.67 346.06-20.63 346.06-16.99L346.06-16.99 346.06-3.2Q346.06-2.73 346.37-2.44 346.67-2.15 347.11-2.1L347.11-2.1 349.31-1.95ZM371.91-4.71L371.91-4.71 371.91-1.86Q370.23-0.95 368.12-0.17 366.01 0.61 363.47 0.61L363.47 0.61Q359.97 0.61 357.4-1.03 354.82-2.66 353.42-5.48 352.02-8.3 352.02-11.89L352.02-11.89Q352.02-16.09 353.69-18.95 355.36-21.8 358.11-23.25 360.85-24.71 364.05-24.71L364.05-24.71Q367.35-24.71 369.58-23.43 371.82-22.14 371.82-19.7L371.82-19.7Q371.82-18.24 370.9-17.49 369.98-16.75 368.86-16.75L368.86-16.75Q368.03-16.75 367.42-17.03 366.81-17.31 366.35-17.6L366.35-17.6 366.35-21.95Q365.2-22.61 364.25-22.61L364.25-22.61Q362.03-22.61 360.43-21.3 358.83-20 357.97-17.72 357.12-15.45 357.12-12.55L357.12-12.55Q357.12-9.79 358.05-7.51 358.97-5.22 360.82-3.88 362.66-2.54 365.39-2.54L365.39-2.54Q367.13-2.54 368.72-3.1 370.3-3.66 371.91-4.71ZM396.4-5.54L396.4-2.49Q394.3-1.2 391.87-0.29 389.44 0.61 386.9 0.61L386.9 0.61Q383.87 0.61 381.22-0.74 378.58-2.1 376.94-4.86 375.3-7.62 375.3-11.79L375.3-11.79Q375.3-15.7 376.82-18.6 378.33-21.51 380.99-23.11 383.65-24.71 387.05-24.71L387.05-24.71Q391.71-24.71 394.05-21.81 396.4-18.92 396.4-14.45L396.4-14.45Q396.4-14.21 396.4-13.81 396.4-13.4 396.35-13.06L396.35-13.06 380.14-13.06Q380.14-11.16 380.54-9.27 380.94-7.37 381.9-5.83 382.85-4.3 384.46-3.37 386.07-2.44 388.49-2.44L388.49-2.44Q390.64-2.44 392.67-3.43 394.71-4.42 396.4-5.54L396.4-5.54ZM380.41-15.31L391.39-15.31 391.39-16.41Q391.39-18.87 390.21-20.56 389.03-22.24 386.53-22.24L386.53-22.24Q384.07-22.24 382.34-20.39 380.6-18.53 380.41-15.31L380.41-15.31Z" opacity="1" transform="matrix(1,0,0,1,0,0)" fill="black" class="slogan-text-1" id="SvgjsPath1370"></path></svg></g></svg></g></svg></g></svg></g></svg></g></svg></g></svg></g><path d="M243.251 58.969L243.251 2.315 0.68 2.315 0.68 244.885 243.251 244.885 243.251 188.231 236.806 188.231 236.806 238.44 7.125 238.44 7.125 8.76 236.806 8.76 236.806 58.969Z" fill="black" stroke="transparent"></path></svg></g><defs><mask></mask></defs></svg><rect width="395.52" height="247.2" fill="black" stroke="none" visibility="hidden"></rect></g></mask></svg><rect width="395.52" height="247.2" fill="black" stroke="none" visibility="hidden"></rect></g></mask><linearGradient x1="0" x2="1" y1="0.578" y2="0.595" id="3bf35124-dd43-4ba5-98c4-c8089a39de58"><stop stop-color="#dede50" offset="0"></stop><stop stop-color="#559c49" offset="1"></stop></linearGradient><rect width="395.52" height="247.2" fill="#ffffff" mask="url(#6c7ad584-fcb0-4698-9c67-af492e9893b3)" data-fill-palette-color="secondary"></rect><mask id="e0be5db2-4436-475a-8506-c2b917ecbb61"><g id="SvgjsG1413"><svg viewBox="0 0 395.52 247.2" height="247.2" width="395.52"><g><svg></svg></g><g><svg viewBox="0 0 395.52 247.2" height="247.2" width="395.52"><g transform="matrix(1,0,0,1,75.54432,64.96869315405387)"><svg viewBox="0 0 244.43135999999998 117.26261369189226" height="117.26261369189226" width="244.43135999999998"><g><svg viewBox="0 0 244.43135999999998 117.26261369189226" height="117.26261369189226" width="244.43135999999998"><g><svg viewBox="0 0 244.43136 117.26261369189227" height="117.26261369189226" width="244.43135999999998"><g><svg viewBox="0 0 244.43136 117.26261369189227" height="117.26261369189227" width="244.43136"><g id="SvgjsG1412"><svg viewBox="0 0 244.43136 117.26261369189227" height="117.26261369189227" width="244.43136" id="SvgjsSvg1411"><g><svg viewBox="0 0 244.43136 71.46825551269036" height="71.46825551269036" width="244.43136"><g transform="matrix(1,0,0,1,0,0)"><svg width="244.43136" viewBox="2.25 -34.86 120.22 35.15" height="71.46825551269036" data-palette-color="url(#b3700367-6824-4a14-b4a3-6fb5f6adf07e)"></svg></g></svg></g><g transform="matrix(1,0,0,1,0,88.34019540110425)"><svg viewBox="0 0 244.43136 28.922418290788016" height="28.922418290788016" width="244.43136"><g transform="matrix(1,0,0,1,0,0)"><svg width="244.43136" viewBox="0.49 -35.4 395.90999999999997 46.849999999999994" height="28.922418290788016" data-palette-color="url(#3bf35124-dd43-4ba5-98c4-c8089a39de58)"></svg></g></svg></g></svg></g></svg></g></svg></g></svg></g></svg></g><path d="M243.251 58.969L243.251 2.315 0.68 2.315 0.68 244.885 243.251 244.885 243.251 188.231 236.806 188.231 236.806 238.44 7.125 238.44 7.125 8.76 236.806 8.76 236.806 58.969Z" fill="white" stroke="transparent"></path></svg></g><defs><mask></mask></defs><mask><g id="SvgjsG1410"><svg viewBox="0 0 395.52 247.2" height="247.2" width="395.52"><g><svg></svg></g><g><svg viewBox="0 0 395.52 247.2" height="247.2" width="395.52"><g transform="matrix(1,0,0,1,75.54432,64.96869315405387)"><svg viewBox="0 0 244.43135999999998 117.26261369189226" height="117.26261369189226" width="244.43135999999998"><g><svg viewBox="0 0 244.43135999999998 117.26261369189226" height="117.26261369189226" width="244.43135999999998"><g><svg viewBox="0 0 244.43136 117.26261369189227" height="117.26261369189226" width="244.43135999999998"><g><svg viewBox="0 0 244.43136 117.26261369189227" height="117.26261369189227" width="244.43136"><g id="SvgjsG1409"><svg viewBox="0 0 244.43136 117.26261369189227" height="117.26261369189227" width="244.43136" id="SvgjsSvg1408"><g><svg viewBox="0 0 244.43136 71.46825551269036" height="71.46825551269036" width="244.43136"><g transform="matrix(1,0,0,1,0,0)"><svg width="244.43136" viewBox="2.25 -34.86 120.22 35.15" height="71.46825551269036" data-palette-color="url(#b3700367-6824-4a14-b4a3-6fb5f6adf07e)"><path d="M10.79 0L10.79 0 2.25 0 2.25-34.86 10.91-34.86Q15.45-34.86 17.49-33.4 19.53-31.93 19.6-28.54L19.6-28.54Q19.73-24.58 19.76-21.02 19.8-17.46 19.76-13.89 19.73-10.33 19.6-6.35L19.6-6.35Q19.53-2.95 17.48-1.48 15.43 0 10.79 0ZM10.91-31.74L5.64-31.74 5.64-3.13 10.79-3.13Q13.65-3.13 14.92-3.83 16.19-4.54 16.21-5.98L16.21-5.98Q16.58-17.43 16.21-28.93L16.21-28.93Q16.19-30.37 14.93-31.05 13.67-31.74 10.91-31.74L10.91-31.74ZM27.39-10.74L27.39 0 23.92 0 23.92-34.86 27.49-34.86 27.49-26.59 27.05-17.87 28.02-17.87 32.35-27.25 35.81-34.86 39.57-34.86 31.93-19.48 40.45 0 36.86 0 29.78-15.38 27.39-10.74ZM51.19-31.74L51.19 0 47.8 0 47.8-31.74 41.13-31.74 41.13-34.86 57.88-34.86 57.88-31.74 51.19-31.74ZM67.72 0.29L67.72 0.29Q63.69 0.29 61.97-0.98 60.25-2.25 60.12-5.13L60.12-5.13Q60.03-6.93 59.99-9.38 59.95-11.82 59.99-14.28 60.03-16.75 60.12-18.58L60.12-18.58Q60.25-21.53 62.02-22.8 63.79-24.07 67.72-24.07L67.72-24.07Q71.43-24.07 73.09-22.83 74.75-21.58 74.92-18.73L74.92-18.73Q74.97-17.87 75.02-15.75 75.07-13.62 74.87-11.23L74.87-11.23 63.18-11.23Q63.18-9.69 63.2-8.11 63.22-6.52 63.3-4.81L63.3-4.81Q63.32-3.47 64.32-2.95 65.32-2.44 67.62-2.44L67.62-2.44Q69.89-2.44 70.82-2.95 71.75-3.47 71.84-4.81L71.84-4.81Q71.92-6.15 71.84-8.47L71.84-8.47 74.87-8.47Q74.99-7.76 74.98-6.82 74.97-5.88 74.92-5.13L74.92-5.13Q74.75-2.25 73.17-0.98 71.6 0.29 67.72 0.29ZM63.18-13.82L63.18-13.82 71.89-13.82Q71.94-15.48 71.94-16.99 71.94-18.51 71.84-19.07L71.84-19.07Q71.75-20.29 70.79-20.81 69.84-21.34 67.72-21.34L67.72-21.34Q65.35-21.34 64.34-20.81 63.32-20.29 63.3-19.07L63.3-19.07Q63.22-17.65 63.19-16.36 63.15-15.06 63.18-13.82ZM84.54 0.27L84.54 0.27Q81.56 0.27 80.13-0.9 78.7-2.08 78.46-4.57L78.46-4.57Q78.43-5.05 78.4-5.54 78.36-6.03 78.41-6.49L78.41-6.49Q78.58-8.67 79.78-10.14 80.97-11.62 84.32-12.84L84.32-12.84Q85.68-13.33 87.2-13.72 88.71-14.11 90.2-14.48L90.2-14.48 90.2-18.99Q90.2-20.19 89.3-20.76 88.39-21.34 86.15-21.34L86.15-21.34Q84.19-21.34 83.18-20.85 82.17-20.36 82.07-19.07L82.07-19.07Q82.02-18.46 82.02-17.32 82.02-16.19 82.07-15.41L82.07-15.41 79.02-15.41Q78.97-16.02 78.92-16.99 78.87-17.97 78.95-18.73L78.95-18.73Q79.07-21.56 80.79-22.81 82.51-24.07 86.27-24.07L86.27-24.07Q90.2-24.07 91.73-22.71 93.25-21.34 93.28-18.21L93.28-18.21 93.28 0 90.2 0 90.2-2.25 89.52-2.25Q88.91-1.03 87.77-0.38 86.64 0.27 84.54 0.27ZM85.32-2.37L85.32-2.37Q88.83-2.37 90.18-4.47L90.18-4.47 90.18-11.87Q89-11.62 87.77-11.29 86.54-10.96 84.88-10.4L84.88-10.4Q82.9-9.67 82.24-8.72 81.58-7.76 81.48-6.49L81.48-6.49Q81.51-6.13 81.52-5.7 81.53-5.27 81.58-4.81L81.58-4.81Q81.75-3.64 82.75-3 83.75-2.37 85.32-2.37ZM100.92-19.19L100.92 0 97.77 0 97.77-23.75 100.92-23.75 100.92-21.53 101.53-21.53Q102.36-22.83 103.47-23.45 104.58-24.07 106.53-24.07L106.53-24.07Q110.46-24.07 111.36-21.34L111.36-21.34 112.02-21.34Q112.83-22.61 114.07-23.34 115.32-24.07 117.27-24.07L117.27-24.07Q119.88-24.07 121.18-22.86 122.47-21.66 122.47-18.82L122.47-18.82 122.47 0 119.35 0 119.35-19.09Q119.3-20.31 118.59-20.86 117.88-21.41 116.25-21.41L116.25-21.41Q113-21.41 111.73-19.12L111.73-19.12 111.73 0 108.61 0 108.61-19.09Q108.56-20.31 107.85-20.86 107.14-21.41 105.55-21.41L105.55-21.41Q102.09-21.41 100.92-19.19L100.92-19.19Z" opacity="1" transform="matrix(1,0,0,1,0,0)" fill="black" class="wordmark-text-0" id="SvgjsPath1407"></path></svg></g></svg></g><g transform="matrix(1,0,0,1,0,88.34019540110425)"><svg viewBox="0 0 244.43136 28.922418290788016" height="28.922418290788016" width="244.43136"><g transform="matrix(1,0,0,1,0,0)"><svg width="244.43136" viewBox="0.49 -35.4 395.90999999999997 46.849999999999994" height="28.922418290788016" data-palette-color="url(#3bf35124-dd43-4ba5-98c4-c8089a39de58)"><path d="M26-24.1L26-22.14 23.39-21.85 13.79 1.54Q13.48 2.34 12.81 3.85 12.13 5.35 11.22 6.92 10.3 8.5 9.25 9.55L9.25 9.55Q8.35 10.45 7.26 10.95 6.18 11.45 4.91 11.45L4.91 11.45Q3.13 11.45 2.19 10.58 1.25 9.72 1.25 8.59L1.25 8.59Q1.25 6.93 2.86 5.59L2.86 5.59 7.54 7.74Q8.37 6.91 9.2 5.49 10.03 4.08 10.71 2.56 11.38 1.05 11.74-0.05L11.74-0.05 3.25-21.85 0.49-22.14 0.49-24.1 11.55-24.1 11.55-22.14 9.16-22Q8.35-21.92 8.35-21.19L8.35-21.19Q8.35-21 8.4-20.9L8.4-20.9 14.21-6.15 20.14-20.9Q20.21-21.04 20.21-21.22L20.21-21.22Q20.21-21.95 19.46-22L19.46-22 17.09-22.14 17.09-24.1 26-24.1ZM51.98-12.01L51.98-12.01Q51.98-8.47 50.51-5.6 49.05-2.73 46.37-1.06 43.7 0.61 40.04 0.61L40.04 0.61Q36.4 0.61 33.74-1.05 31.08-2.71 29.64-5.57 28.2-8.42 28.2-12.01L28.2-12.01Q28.2-15.58 29.65-18.46 31.1-21.34 33.8-23.02 36.5-24.71 40.18-24.71L40.18-24.71Q43.92-24.71 46.56-23 49.19-21.29 50.58-18.41 51.98-15.53 51.98-12.01ZM46.77-12.06L46.77-12.06Q46.77-14.79 46.05-17.16 45.33-19.53 43.86-21 42.38-22.46 40.13-22.46L40.13-22.46Q37.81-22.46 36.34-21 34.86-19.53 34.15-17.16 33.44-14.79 33.44-12.06L33.44-12.06Q33.44-9.35 34.16-6.97 34.89-4.59 36.36-3.13 37.84-1.66 40.09-1.66L40.09-1.66Q42.38-1.66 43.86-3.13 45.33-4.59 46.05-6.96 46.77-9.33 46.77-12.06ZM81.07-1.95L81.07 0 73.14 0 73.14-2.86Q72.29-2.2 70.97-1.39 69.65-0.59 68.13 0.01 66.62 0.61 65.13 0.61L65.13 0.61Q61.91 0.61 60.07-1.33 58.22-3.27 58.22-7.5L58.22-7.5 58.22-21.04 54.73-21.04 54.73-22.75 60.88-24.71 62.89-24.71 62.89-8.45Q62.89-5.79 63.97-4.3 65.06-2.81 67.72-2.81L67.72-2.81Q69.26-2.81 70.75-3.33 72.24-3.86 73.14-4.3L73.14-4.3 73.14-21.04 69.62-21.04 69.62-22.75 75.73-24.71 77.78-24.71 77.78-3.2Q77.78-2.73 78.11-2.44 78.44-2.15 78.88-2.1L78.88-2.1 81.07-1.95ZM101.16-23.95L101.16-18.99 99.21-18.99Q98.75-19.56 98.1-19.96 97.45-20.36 96.53-20.36L96.53-20.36Q95.33-20.36 94.07-19.53 92.81-18.7 91.52-17.26L91.52-17.26 91.52-3.2Q91.52-2.15 92.57-2.1L92.57-2.1 95.87-1.95 95.87 0 83.37 0 83.37-1.9 85.83-2.1Q86.27-2.15 86.58-2.44 86.88-2.73 86.88-3.2L86.88-3.2 86.88-20.56 83.27-20.56 83.27-22.19 89.47-24.1 91.52-24.1 91.52-19.65Q92.25-20.46 93.35-21.66 94.45-22.85 95.7-23.78 96.94-24.71 98.11-24.71L98.11-24.71Q98.89-24.71 99.8-24.46 100.7-24.22 101.16-23.95L101.16-23.95ZM145.79-4.71L145.79-4.71 145.79-1.86Q144.1-0.95 141.99-0.17 139.88 0.61 137.34 0.61L137.34 0.61Q133.85 0.61 131.27-1.03 128.7-2.66 127.29-5.48 125.89-8.3 125.89-11.89L125.89-11.89Q125.89-16.09 127.56-18.95 129.24-21.8 131.98-23.25 134.73-24.71 137.93-24.71L137.93-24.71Q141.22-24.71 143.46-23.43 145.69-22.14 145.69-19.7L145.69-19.7Q145.69-18.24 144.78-17.49 143.86-16.75 142.74-16.75L142.74-16.75Q141.91-16.75 141.3-17.03 140.69-17.31 140.22-17.6L140.22-17.6 140.22-21.95Q139.07-22.61 138.12-22.61L138.12-22.61Q135.9-22.61 134.3-21.3 132.7-20 131.85-17.72 130.99-15.45 130.99-12.55L130.99-12.55Q130.99-9.79 131.92-7.51 132.85-5.22 134.69-3.88 136.54-2.54 139.27-2.54L139.27-2.54Q141-2.54 142.59-3.1 144.18-3.66 145.79-4.71ZM172.96-12.01L172.96-12.01Q172.96-8.47 171.49-5.6 170.03-2.73 167.36-1.06 164.68 0.61 161.02 0.61L161.02 0.61Q157.38 0.61 154.72-1.05 152.06-2.71 150.62-5.57 149.18-8.42 149.18-12.01L149.18-12.01Q149.18-15.58 150.63-18.46 152.08-21.34 154.78-23.02 157.48-24.71 161.17-24.71L161.17-24.71Q164.9-24.71 167.54-23 170.18-21.29 171.57-18.41 172.96-15.53 172.96-12.01ZM167.76-12.06L167.76-12.06Q167.76-14.79 167.04-17.16 166.32-19.53 164.84-21 163.36-22.46 161.12-22.46L161.12-22.46Q158.8-22.46 157.32-21 155.84-19.53 155.14-17.16 154.43-14.79 154.43-12.06L154.43-12.06Q154.43-9.35 155.15-6.97 155.87-4.59 157.35-3.13 158.82-1.66 161.07-1.66L161.07-1.66Q163.36-1.66 164.84-3.13 166.32-4.59 167.04-6.96 167.76-9.33 167.76-12.06ZM202.01-1.95L202.01 0 190.97 0 190.97-1.95 193.07-2.1Q193.51-2.15 193.82-2.44 194.12-2.73 194.12-3.2L194.12-3.2 194.12-16.21Q194.12-18.58 193.02-19.81 191.93-21.04 189.31-21.04L189.31-21.04Q187.9-21.04 186.49-20.64 185.09-20.24 183.82-19.6L183.82-19.6 183.82-3.2Q183.82-2.17 184.87-2.1L184.87-2.1 186.97-1.95 186.97 0 175.67 0 175.67-1.95 178.11-2.1Q179.16-2.17 179.16-3.2L179.16-3.2 179.16-20.56 175.67-20.56 175.67-22.19 181.77-24.1 183.82-24.1 183.82-21.61Q185.92-22.8 188.13-23.75 190.34-24.71 192.07-24.71L192.07-24.71Q195.34-24.71 197.05-22.67 198.76-20.63 198.76-16.99L198.76-16.99 198.76-3.2Q198.76-2.73 199.07-2.44 199.37-2.15 199.81-2.1L199.81-2.1 202.01-1.95ZM228.96-24.1L228.96-22.14 226.3-21.85 217.56 0 214.31 0 206.25-21.85 203.5-22.14 203.5-24.1 214.56-24.1 214.56-22.14 212.16-22Q211.36-21.92 211.36-21.19L211.36-21.19Q211.36-21.09 211.41-20.9L211.41-20.9 217-5.25 223.15-20.9Q223.22-21.04 223.22-21.22L223.22-21.22Q223.22-21.95 222.47-22L222.47-22 220.22-22.14 220.22-24.1 228.96-24.1ZM252.25-5.54L252.25-2.49Q250.15-1.2 247.72-0.29 245.29 0.61 242.75 0.61L242.75 0.61Q239.72 0.61 237.07-0.74 234.43-2.1 232.79-4.86 231.15-7.62 231.15-11.79L231.15-11.79Q231.15-15.7 232.67-18.6 234.18-21.51 236.84-23.11 239.5-24.71 242.9-24.71L242.9-24.71Q247.56-24.71 249.9-21.81 252.25-18.92 252.25-14.45L252.25-14.45Q252.25-14.21 252.25-13.81 252.25-13.4 252.2-13.06L252.2-13.06 235.99-13.06Q235.99-11.16 236.39-9.27 236.79-7.37 237.75-5.83 238.7-4.3 240.31-3.37 241.92-2.44 244.34-2.44L244.34-2.44Q246.49-2.44 248.52-3.43 250.56-4.42 252.25-5.54L252.25-5.54ZM236.26-15.31L247.24-15.31 247.24-16.41Q247.24-18.87 246.06-20.56 244.87-22.24 242.38-22.24L242.38-22.24Q239.92-22.24 238.19-20.39 236.45-18.53 236.26-15.31L236.26-15.31ZM281.3-1.95L281.3 0 270.26 0 270.26-1.95 272.36-2.1Q272.8-2.15 273.11-2.44 273.41-2.73 273.41-3.2L273.41-3.2 273.41-16.21Q273.41-18.58 272.31-19.81 271.22-21.04 268.6-21.04L268.6-21.04Q267.19-21.04 265.78-20.64 264.38-20.24 263.11-19.6L263.11-19.6 263.11-3.2Q263.11-2.17 264.16-2.1L264.16-2.1 266.26-1.95 266.26 0 254.96 0 254.96-1.95 257.4-2.1Q258.45-2.17 258.45-3.2L258.45-3.2 258.45-20.56 254.96-20.56 254.96-22.19 261.06-24.1 263.11-24.1 263.11-21.61Q265.21-22.8 267.42-23.75 269.63-24.71 271.36-24.71L271.36-24.71Q274.63-24.71 276.34-22.67 278.05-20.63 278.05-16.99L278.05-16.99 278.05-3.2Q278.05-2.73 278.36-2.44 278.66-2.15 279.1-2.1L279.1-2.1 281.3-1.95ZM293.19-32.35L293.19-32.35Q293.19-31.08 292.31-30.16 291.43-29.25 290.16-29.25L290.16-29.25Q288.89-29.25 287.97-30.16 287.06-31.08 287.06-32.35L287.06-32.35Q287.06-33.64 287.97-34.52 288.89-35.4 290.16-35.4L290.16-35.4Q291.43-35.4 292.31-34.52 293.19-33.64 293.19-32.35ZM295.75-1.95L295.75 0 284.01 0 284.01-1.95 286.45-2.1Q287.5-2.17 287.5-3.2L287.5-3.2 287.5-21.04 284.05-21.04 284.05-22.8 290.16-24.71 292.14-24.71 292.14-3.2Q292.14-2.73 292.44-2.44 292.75-2.15 293.19-2.1L293.19-2.1 295.75-1.95ZM320.26-5.54L320.26-2.49Q318.16-1.2 315.73-0.29 313.3 0.61 310.76 0.61L310.76 0.61Q307.73 0.61 305.08-0.74 302.44-2.1 300.8-4.86 299.16-7.62 299.16-11.79L299.16-11.79Q299.16-15.7 300.68-18.6 302.19-21.51 304.85-23.11 307.51-24.71 310.91-24.71L310.91-24.71Q315.57-24.71 317.91-21.81 320.26-18.92 320.26-14.45L320.26-14.45Q320.26-14.21 320.26-13.81 320.26-13.4 320.21-13.06L320.21-13.06 304-13.06Q304-11.16 304.4-9.27 304.8-7.37 305.76-5.83 306.71-4.3 308.32-3.37 309.93-2.44 312.35-2.44L312.35-2.44Q314.5-2.44 316.53-3.43 318.57-4.42 320.26-5.54L320.26-5.54ZM304.27-15.31L315.25-15.31 315.25-16.41Q315.25-18.87 314.07-20.56 312.89-22.24 310.39-22.24L310.39-22.24Q307.93-22.24 306.2-20.39 304.46-18.53 304.27-15.31L304.27-15.31ZM349.31-1.95L349.31 0 338.27 0 338.27-1.95 340.37-2.1Q340.81-2.15 341.12-2.44 341.42-2.73 341.42-3.2L341.42-3.2 341.42-16.21Q341.42-18.58 340.32-19.81 339.23-21.04 336.61-21.04L336.61-21.04Q335.2-21.04 333.79-20.64 332.39-20.24 331.12-19.6L331.12-19.6 331.12-3.2Q331.12-2.17 332.17-2.1L332.17-2.1 334.27-1.95 334.27 0 322.97 0 322.97-1.95 325.41-2.1Q326.46-2.17 326.46-3.2L326.46-3.2 326.46-20.56 322.97-20.56 322.97-22.19 329.07-24.1 331.12-24.1 331.12-21.61Q333.22-22.8 335.43-23.75 337.64-24.71 339.37-24.71L339.37-24.71Q342.64-24.71 344.35-22.67 346.06-20.63 346.06-16.99L346.06-16.99 346.06-3.2Q346.06-2.73 346.37-2.44 346.67-2.15 347.11-2.1L347.11-2.1 349.31-1.95ZM371.91-4.71L371.91-4.71 371.91-1.86Q370.23-0.95 368.12-0.17 366.01 0.61 363.47 0.61L363.47 0.61Q359.97 0.61 357.4-1.03 354.82-2.66 353.42-5.48 352.02-8.3 352.02-11.89L352.02-11.89Q352.02-16.09 353.69-18.95 355.36-21.8 358.11-23.25 360.85-24.71 364.05-24.71L364.05-24.71Q367.35-24.71 369.58-23.43 371.82-22.14 371.82-19.7L371.82-19.7Q371.82-18.24 370.9-17.49 369.98-16.75 368.86-16.75L368.86-16.75Q368.03-16.75 367.42-17.03 366.81-17.31 366.35-17.6L366.35-17.6 366.35-21.95Q365.2-22.61 364.25-22.61L364.25-22.61Q362.03-22.61 360.43-21.3 358.83-20 357.97-17.72 357.12-15.45 357.12-12.55L357.12-12.55Q357.12-9.79 358.05-7.51 358.97-5.22 360.82-3.88 362.66-2.54 365.39-2.54L365.39-2.54Q367.13-2.54 368.72-3.1 370.3-3.66 371.91-4.71ZM396.4-5.54L396.4-2.49Q394.3-1.2 391.87-0.29 389.44 0.61 386.9 0.61L386.9 0.61Q383.87 0.61 381.22-0.74 378.58-2.1 376.94-4.86 375.3-7.62 375.3-11.79L375.3-11.79Q375.3-15.7 376.82-18.6 378.33-21.51 380.99-23.11 383.65-24.71 387.05-24.71L387.05-24.71Q391.71-24.71 394.05-21.81 396.4-18.92 396.4-14.45L396.4-14.45Q396.4-14.21 396.4-13.81 396.4-13.4 396.35-13.06L396.35-13.06 380.14-13.06Q380.14-11.16 380.54-9.27 380.94-7.37 381.9-5.83 382.85-4.3 384.46-3.37 386.07-2.44 388.49-2.44L388.49-2.44Q390.64-2.44 392.67-3.43 394.71-4.42 396.4-5.54L396.4-5.54ZM380.41-15.31L391.39-15.31 391.39-16.41Q391.39-18.87 390.21-20.56 389.03-22.24 386.53-22.24L386.53-22.24Q384.07-22.24 382.34-20.39 380.6-18.53 380.41-15.31L380.41-15.31Z" opacity="1" transform="matrix(1,0,0,1,0,0)" fill="black" class="slogan-text-1" id="SvgjsPath1406"></path></svg></g></svg></g></svg></g></svg></g></svg></g></svg></g></svg></g><path d="M243.251 58.969L243.251 2.315 0.68 2.315 0.68 244.885 243.251 244.885 243.251 188.231 236.806 188.231 236.806 238.44 7.125 238.44 7.125 8.76 236.806 8.76 236.806 58.969Z" fill="black" stroke="transparent"></path></svg></g><defs><mask></mask></defs></svg><rect width="395.52" height="247.2" fill="black" stroke="none" visibility="hidden"></rect></g></mask><mask><g id="SvgjsG1405"><svg viewBox="0 0 395.52 247.2" height="247.2" width="395.52"><g><svg></svg></g><g><svg viewBox="0 0 395.52 247.2" height="247.2" width="395.52"><g transform="matrix(1,0,0,1,75.54432,64.96869315405387)"><svg viewBox="0 0 244.43135999999998 117.26261369189226" height="117.26261369189226" width="244.43135999999998"><g><svg viewBox="0 0 244.43135999999998 117.26261369189226" height="117.26261369189226" width="244.43135999999998"><g><svg viewBox="0 0 244.43136 117.26261369189227" height="117.26261369189226" width="244.43135999999998"><g><svg viewBox="0 0 244.43136 117.26261369189227" height="117.26261369189227" width="244.43136"><g id="SvgjsG1404"><svg viewBox="0 0 244.43136 117.26261369189227" height="117.26261369189227" width="244.43136" id="SvgjsSvg1403"><g><svg viewBox="0 0 244.43136 71.46825551269036" height="71.46825551269036" width="244.43136"><g transform="matrix(1,0,0,1,0,0)"><svg width="244.43136" viewBox="2.25 -34.86 120.22 35.15" height="71.46825551269036" data-palette-color="url(#b3700367-6824-4a14-b4a3-6fb5f6adf07e)"></svg></g></svg></g><g transform="matrix(1,0,0,1,0,88.34019540110425)"><svg viewBox="0 0 244.43136 28.922418290788016" height="28.922418290788016" width="244.43136"><g transform="matrix(1,0,0,1,0,0)"><svg width="244.43136" viewBox="0.49 -35.4 395.90999999999997 46.849999999999994" height="28.922418290788016" data-palette-color="url(#3bf35124-dd43-4ba5-98c4-c8089a39de58)"><path d="M26-24.1L26-22.14 23.39-21.85 13.79 1.54Q13.48 2.34 12.81 3.85 12.13 5.35 11.22 6.92 10.3 8.5 9.25 9.55L9.25 9.55Q8.35 10.45 7.26 10.95 6.18 11.45 4.91 11.45L4.91 11.45Q3.13 11.45 2.19 10.58 1.25 9.72 1.25 8.59L1.25 8.59Q1.25 6.93 2.86 5.59L2.86 5.59 7.54 7.74Q8.37 6.91 9.2 5.49 10.03 4.08 10.71 2.56 11.38 1.05 11.74-0.05L11.74-0.05 3.25-21.85 0.49-22.14 0.49-24.1 11.55-24.1 11.55-22.14 9.16-22Q8.35-21.92 8.35-21.19L8.35-21.19Q8.35-21 8.4-20.9L8.4-20.9 14.21-6.15 20.14-20.9Q20.21-21.04 20.21-21.22L20.21-21.22Q20.21-21.95 19.46-22L19.46-22 17.09-22.14 17.09-24.1 26-24.1ZM51.98-12.01L51.98-12.01Q51.98-8.47 50.51-5.6 49.05-2.73 46.37-1.06 43.7 0.61 40.04 0.61L40.04 0.61Q36.4 0.61 33.74-1.05 31.08-2.71 29.64-5.57 28.2-8.42 28.2-12.01L28.2-12.01Q28.2-15.58 29.65-18.46 31.1-21.34 33.8-23.02 36.5-24.71 40.18-24.71L40.18-24.71Q43.92-24.71 46.56-23 49.19-21.29 50.58-18.41 51.98-15.53 51.98-12.01ZM46.77-12.06L46.77-12.06Q46.77-14.79 46.05-17.16 45.33-19.53 43.86-21 42.38-22.46 40.13-22.46L40.13-22.46Q37.81-22.46 36.34-21 34.86-19.53 34.15-17.16 33.44-14.79 33.44-12.06L33.44-12.06Q33.44-9.35 34.16-6.97 34.89-4.59 36.36-3.13 37.84-1.66 40.09-1.66L40.09-1.66Q42.38-1.66 43.86-3.13 45.33-4.59 46.05-6.96 46.77-9.33 46.77-12.06ZM81.07-1.95L81.07 0 73.14 0 73.14-2.86Q72.29-2.2 70.97-1.39 69.65-0.59 68.13 0.01 66.62 0.61 65.13 0.61L65.13 0.61Q61.91 0.61 60.07-1.33 58.22-3.27 58.22-7.5L58.22-7.5 58.22-21.04 54.73-21.04 54.73-22.75 60.88-24.71 62.89-24.71 62.89-8.45Q62.89-5.79 63.97-4.3 65.06-2.81 67.72-2.81L67.72-2.81Q69.26-2.81 70.75-3.33 72.24-3.86 73.14-4.3L73.14-4.3 73.14-21.04 69.62-21.04 69.62-22.75 75.73-24.71 77.78-24.71 77.78-3.2Q77.78-2.73 78.11-2.44 78.44-2.15 78.88-2.1L78.88-2.1 81.07-1.95ZM101.16-23.95L101.16-18.99 99.21-18.99Q98.75-19.56 98.1-19.96 97.45-20.36 96.53-20.36L96.53-20.36Q95.33-20.36 94.07-19.53 92.81-18.7 91.52-17.26L91.52-17.26 91.52-3.2Q91.52-2.15 92.57-2.1L92.57-2.1 95.87-1.95 95.87 0 83.37 0 83.37-1.9 85.83-2.1Q86.27-2.15 86.58-2.44 86.88-2.73 86.88-3.2L86.88-3.2 86.88-20.56 83.27-20.56 83.27-22.19 89.47-24.1 91.52-24.1 91.52-19.65Q92.25-20.46 93.35-21.66 94.45-22.85 95.7-23.78 96.94-24.71 98.11-24.71L98.11-24.71Q98.89-24.71 99.8-24.46 100.7-24.22 101.16-23.95L101.16-23.95ZM145.79-4.71L145.79-4.71 145.79-1.86Q144.1-0.95 141.99-0.17 139.88 0.61 137.34 0.61L137.34 0.61Q133.85 0.61 131.27-1.03 128.7-2.66 127.29-5.48 125.89-8.3 125.89-11.89L125.89-11.89Q125.89-16.09 127.56-18.95 129.24-21.8 131.98-23.25 134.73-24.71 137.93-24.71L137.93-24.71Q141.22-24.71 143.46-23.43 145.69-22.14 145.69-19.7L145.69-19.7Q145.69-18.24 144.78-17.49 143.86-16.75 142.74-16.75L142.74-16.75Q141.91-16.75 141.3-17.03 140.69-17.31 140.22-17.6L140.22-17.6 140.22-21.95Q139.07-22.61 138.12-22.61L138.12-22.61Q135.9-22.61 134.3-21.3 132.7-20 131.85-17.72 130.99-15.45 130.99-12.55L130.99-12.55Q130.99-9.79 131.92-7.51 132.85-5.22 134.69-3.88 136.54-2.54 139.27-2.54L139.27-2.54Q141-2.54 142.59-3.1 144.18-3.66 145.79-4.71ZM172.96-12.01L172.96-12.01Q172.96-8.47 171.49-5.6 170.03-2.73 167.36-1.06 164.68 0.61 161.02 0.61L161.02 0.61Q157.38 0.61 154.72-1.05 152.06-2.71 150.62-5.57 149.18-8.42 149.18-12.01L149.18-12.01Q149.18-15.58 150.63-18.46 152.08-21.34 154.78-23.02 157.48-24.71 161.17-24.71L161.17-24.71Q164.9-24.71 167.54-23 170.18-21.29 171.57-18.41 172.96-15.53 172.96-12.01ZM167.76-12.06L167.76-12.06Q167.76-14.79 167.04-17.16 166.32-19.53 164.84-21 163.36-22.46 161.12-22.46L161.12-22.46Q158.8-22.46 157.32-21 155.84-19.53 155.14-17.16 154.43-14.79 154.43-12.06L154.43-12.06Q154.43-9.35 155.15-6.97 155.87-4.59 157.35-3.13 158.82-1.66 161.07-1.66L161.07-1.66Q163.36-1.66 164.84-3.13 166.32-4.59 167.04-6.96 167.76-9.33 167.76-12.06ZM202.01-1.95L202.01 0 190.97 0 190.97-1.95 193.07-2.1Q193.51-2.15 193.82-2.44 194.12-2.73 194.12-3.2L194.12-3.2 194.12-16.21Q194.12-18.58 193.02-19.81 191.93-21.04 189.31-21.04L189.31-21.04Q187.9-21.04 186.49-20.64 185.09-20.24 183.82-19.6L183.82-19.6 183.82-3.2Q183.82-2.17 184.87-2.1L184.87-2.1 186.97-1.95 186.97 0 175.67 0 175.67-1.95 178.11-2.1Q179.16-2.17 179.16-3.2L179.16-3.2 179.16-20.56 175.67-20.56 175.67-22.19 181.77-24.1 183.82-24.1 183.82-21.61Q185.92-22.8 188.13-23.75 190.34-24.71 192.07-24.71L192.07-24.71Q195.34-24.71 197.05-22.67 198.76-20.63 198.76-16.99L198.76-16.99 198.76-3.2Q198.76-2.73 199.07-2.44 199.37-2.15 199.81-2.1L199.81-2.1 202.01-1.95ZM228.96-24.1L228.96-22.14 226.3-21.85 217.56 0 214.31 0 206.25-21.85 203.5-22.14 203.5-24.1 214.56-24.1 214.56-22.14 212.16-22Q211.36-21.92 211.36-21.19L211.36-21.19Q211.36-21.09 211.41-20.9L211.41-20.9 217-5.25 223.15-20.9Q223.22-21.04 223.22-21.22L223.22-21.22Q223.22-21.95 222.47-22L222.47-22 220.22-22.14 220.22-24.1 228.96-24.1ZM252.25-5.54L252.25-2.49Q250.15-1.2 247.72-0.29 245.29 0.61 242.75 0.61L242.75 0.61Q239.72 0.61 237.07-0.74 234.43-2.1 232.79-4.86 231.15-7.62 231.15-11.79L231.15-11.79Q231.15-15.7 232.67-18.6 234.18-21.51 236.84-23.11 239.5-24.71 242.9-24.71L242.9-24.71Q247.56-24.71 249.9-21.81 252.25-18.92 252.25-14.45L252.25-14.45Q252.25-14.21 252.25-13.81 252.25-13.4 252.2-13.06L252.2-13.06 235.99-13.06Q235.99-11.16 236.39-9.27 236.79-7.37 237.75-5.83 238.7-4.3 240.31-3.37 241.92-2.44 244.34-2.44L244.34-2.44Q246.49-2.44 248.52-3.43 250.56-4.42 252.25-5.54L252.25-5.54ZM236.26-15.31L247.24-15.31 247.24-16.41Q247.24-18.87 246.06-20.56 244.87-22.24 242.38-22.24L242.38-22.24Q239.92-22.24 238.19-20.39 236.45-18.53 236.26-15.31L236.26-15.31ZM281.3-1.95L281.3 0 270.26 0 270.26-1.95 272.36-2.1Q272.8-2.15 273.11-2.44 273.41-2.73 273.41-3.2L273.41-3.2 273.41-16.21Q273.41-18.58 272.31-19.81 271.22-21.04 268.6-21.04L268.6-21.04Q267.19-21.04 265.78-20.64 264.38-20.24 263.11-19.6L263.11-19.6 263.11-3.2Q263.11-2.17 264.16-2.1L264.16-2.1 266.26-1.95 266.26 0 254.96 0 254.96-1.95 257.4-2.1Q258.45-2.17 258.45-3.2L258.45-3.2 258.45-20.56 254.96-20.56 254.96-22.19 261.06-24.1 263.11-24.1 263.11-21.61Q265.21-22.8 267.42-23.75 269.63-24.71 271.36-24.71L271.36-24.71Q274.63-24.71 276.34-22.67 278.05-20.63 278.05-16.99L278.05-16.99 278.05-3.2Q278.05-2.73 278.36-2.44 278.66-2.15 279.1-2.1L279.1-2.1 281.3-1.95ZM293.19-32.35L293.19-32.35Q293.19-31.08 292.31-30.16 291.43-29.25 290.16-29.25L290.16-29.25Q288.89-29.25 287.97-30.16 287.06-31.08 287.06-32.35L287.06-32.35Q287.06-33.64 287.97-34.52 288.89-35.4 290.16-35.4L290.16-35.4Q291.43-35.4 292.31-34.52 293.19-33.64 293.19-32.35ZM295.75-1.95L295.75 0 284.01 0 284.01-1.95 286.45-2.1Q287.5-2.17 287.5-3.2L287.5-3.2 287.5-21.04 284.05-21.04 284.05-22.8 290.16-24.71 292.14-24.71 292.14-3.2Q292.14-2.73 292.44-2.44 292.75-2.15 293.19-2.1L293.19-2.1 295.75-1.95ZM320.26-5.54L320.26-2.49Q318.16-1.2 315.73-0.29 313.3 0.61 310.76 0.61L310.76 0.61Q307.73 0.61 305.08-0.74 302.44-2.1 300.8-4.86 299.16-7.62 299.16-11.79L299.16-11.79Q299.16-15.7 300.68-18.6 302.19-21.51 304.85-23.11 307.51-24.71 310.91-24.71L310.91-24.71Q315.57-24.71 317.91-21.81 320.26-18.92 320.26-14.45L320.26-14.45Q320.26-14.21 320.26-13.81 320.26-13.4 320.21-13.06L320.21-13.06 304-13.06Q304-11.16 304.4-9.27 304.8-7.37 305.76-5.83 306.71-4.3 308.32-3.37 309.93-2.44 312.35-2.44L312.35-2.44Q314.5-2.44 316.53-3.43 318.57-4.42 320.26-5.54L320.26-5.54ZM304.27-15.31L315.25-15.31 315.25-16.41Q315.25-18.87 314.07-20.56 312.89-22.24 310.39-22.24L310.39-22.24Q307.93-22.24 306.2-20.39 304.46-18.53 304.27-15.31L304.27-15.31ZM349.31-1.95L349.31 0 338.27 0 338.27-1.95 340.37-2.1Q340.81-2.15 341.12-2.44 341.42-2.73 341.42-3.2L341.42-3.2 341.42-16.21Q341.42-18.58 340.32-19.81 339.23-21.04 336.61-21.04L336.61-21.04Q335.2-21.04 333.79-20.64 332.39-20.24 331.12-19.6L331.12-19.6 331.12-3.2Q331.12-2.17 332.17-2.1L332.17-2.1 334.27-1.95 334.27 0 322.97 0 322.97-1.95 325.41-2.1Q326.46-2.17 326.46-3.2L326.46-3.2 326.46-20.56 322.97-20.56 322.97-22.19 329.07-24.1 331.12-24.1 331.12-21.61Q333.22-22.8 335.43-23.75 337.64-24.71 339.37-24.71L339.37-24.71Q342.64-24.71 344.35-22.67 346.06-20.63 346.06-16.99L346.06-16.99 346.06-3.2Q346.06-2.73 346.37-2.44 346.67-2.15 347.11-2.1L347.11-2.1 349.31-1.95ZM371.91-4.71L371.91-4.71 371.91-1.86Q370.23-0.95 368.12-0.17 366.01 0.61 363.47 0.61L363.47 0.61Q359.97 0.61 357.4-1.03 354.82-2.66 353.42-5.48 352.02-8.3 352.02-11.89L352.02-11.89Q352.02-16.09 353.69-18.95 355.36-21.8 358.11-23.25 360.85-24.71 364.05-24.71L364.05-24.71Q367.35-24.71 369.58-23.43 371.82-22.14 371.82-19.7L371.82-19.7Q371.82-18.24 370.9-17.49 369.98-16.75 368.86-16.75L368.86-16.75Q368.03-16.75 367.42-17.03 366.81-17.31 366.35-17.6L366.35-17.6 366.35-21.95Q365.2-22.61 364.25-22.61L364.25-22.61Q362.03-22.61 360.43-21.3 358.83-20 357.97-17.72 357.12-15.45 357.12-12.55L357.12-12.55Q357.12-9.79 358.05-7.51 358.97-5.22 360.82-3.88 362.66-2.54 365.39-2.54L365.39-2.54Q367.13-2.54 368.72-3.1 370.3-3.66 371.91-4.71ZM396.4-5.54L396.4-2.49Q394.3-1.2 391.87-0.29 389.44 0.61 386.9 0.61L386.9 0.61Q383.87 0.61 381.22-0.74 378.58-2.1 376.94-4.86 375.3-7.62 375.3-11.79L375.3-11.79Q375.3-15.7 376.82-18.6 378.33-21.51 380.99-23.11 383.65-24.71 387.05-24.71L387.05-24.71Q391.71-24.71 394.05-21.81 396.4-18.92 396.4-14.45L396.4-14.45Q396.4-14.21 396.4-13.81 396.4-13.4 396.35-13.06L396.35-13.06 380.14-13.06Q380.14-11.16 380.54-9.27 380.94-7.37 381.9-5.83 382.85-4.3 384.46-3.37 386.07-2.44 388.49-2.44L388.49-2.44Q390.64-2.44 392.67-3.43 394.71-4.42 396.4-5.54L396.4-5.54ZM380.41-15.31L391.39-15.31 391.39-16.41Q391.39-18.87 390.21-20.56 389.03-22.24 386.53-22.24L386.53-22.24Q384.07-22.24 382.34-20.39 380.6-18.53 380.41-15.31L380.41-15.31Z" opacity="1" transform="matrix(1,0,0,1,0,0)" fill="black" class="slogan-text-1" id="SvgjsPath1402"></path></svg></g></svg></g></svg></g></svg></g></svg></g></svg></g></svg></g><path d="M243.251 58.969L243.251 2.315 0.68 2.315 0.68 244.885 243.251 244.885 243.251 188.231 236.806 188.231 236.806 238.44 7.125 238.44 7.125 8.76 236.806 8.76 236.806 58.969Z" fill="black" stroke="transparent"></path></svg></g><defs><mask></mask></defs><mask><g id="SvgjsG1401"><svg viewBox="0 0 395.52 247.2" height="247.2" width="395.52"><g><svg></svg></g><g><svg viewBox="0 0 395.52 247.2" height="247.2" width="395.52"><g transform="matrix(1,0,0,1,75.54432,64.96869315405387)"><svg viewBox="0 0 244.43135999999998 117.26261369189226" height="117.26261369189226" width="244.43135999999998"><g><svg viewBox="0 0 244.43135999999998 117.26261369189226" height="117.26261369189226" width="244.43135999999998"><g><svg viewBox="0 0 244.43136 117.26261369189227" height="117.26261369189226" width="244.43135999999998"><g><svg viewBox="0 0 244.43136 117.26261369189227" height="117.26261369189227" width="244.43136"><g id="SvgjsG1400"><svg viewBox="0 0 244.43136 117.26261369189227" height="117.26261369189227" width="244.43136" id="SvgjsSvg1399"><g><svg viewBox="0 0 244.43136 71.46825551269036" height="71.46825551269036" width="244.43136"><g transform="matrix(1,0,0,1,0,0)"><svg width="244.43136" viewBox="2.25 -34.86 120.22 35.15" height="71.46825551269036" data-palette-color="url(#b3700367-6824-4a14-b4a3-6fb5f6adf07e)"><path d="M10.79 0L10.79 0 2.25 0 2.25-34.86 10.91-34.86Q15.45-34.86 17.49-33.4 19.53-31.93 19.6-28.54L19.6-28.54Q19.73-24.58 19.76-21.02 19.8-17.46 19.76-13.89 19.73-10.33 19.6-6.35L19.6-6.35Q19.53-2.95 17.48-1.48 15.43 0 10.79 0ZM10.91-31.74L5.64-31.74 5.64-3.13 10.79-3.13Q13.65-3.13 14.92-3.83 16.19-4.54 16.21-5.98L16.21-5.98Q16.58-17.43 16.21-28.93L16.21-28.93Q16.19-30.37 14.93-31.05 13.67-31.74 10.91-31.74L10.91-31.74ZM27.39-10.74L27.39 0 23.92 0 23.92-34.86 27.49-34.86 27.49-26.59 27.05-17.87 28.02-17.87 32.35-27.25 35.81-34.86 39.57-34.86 31.93-19.48 40.45 0 36.86 0 29.78-15.38 27.39-10.74ZM51.19-31.74L51.19 0 47.8 0 47.8-31.74 41.13-31.74 41.13-34.86 57.88-34.86 57.88-31.74 51.19-31.74ZM67.72 0.29L67.72 0.29Q63.69 0.29 61.97-0.98 60.25-2.25 60.12-5.13L60.12-5.13Q60.03-6.93 59.99-9.38 59.95-11.82 59.99-14.28 60.03-16.75 60.12-18.58L60.12-18.58Q60.25-21.53 62.02-22.8 63.79-24.07 67.72-24.07L67.72-24.07Q71.43-24.07 73.09-22.83 74.75-21.58 74.92-18.73L74.92-18.73Q74.97-17.87 75.02-15.75 75.07-13.62 74.87-11.23L74.87-11.23 63.18-11.23Q63.18-9.69 63.2-8.11 63.22-6.52 63.3-4.81L63.3-4.81Q63.32-3.47 64.32-2.95 65.32-2.44 67.62-2.44L67.62-2.44Q69.89-2.44 70.82-2.95 71.75-3.47 71.84-4.81L71.84-4.81Q71.92-6.15 71.84-8.47L71.84-8.47 74.87-8.47Q74.99-7.76 74.98-6.82 74.97-5.88 74.92-5.13L74.92-5.13Q74.75-2.25 73.17-0.98 71.6 0.29 67.72 0.29ZM63.18-13.82L63.18-13.82 71.89-13.82Q71.94-15.48 71.94-16.99 71.94-18.51 71.84-19.07L71.84-19.07Q71.75-20.29 70.79-20.81 69.84-21.34 67.72-21.34L67.72-21.34Q65.35-21.34 64.34-20.81 63.32-20.29 63.3-19.07L63.3-19.07Q63.22-17.65 63.19-16.36 63.15-15.06 63.18-13.82ZM84.54 0.27L84.54 0.27Q81.56 0.27 80.13-0.9 78.7-2.08 78.46-4.57L78.46-4.57Q78.43-5.05 78.4-5.54 78.36-6.03 78.41-6.49L78.41-6.49Q78.58-8.67 79.78-10.14 80.97-11.62 84.32-12.84L84.32-12.84Q85.68-13.33 87.2-13.72 88.71-14.11 90.2-14.48L90.2-14.48 90.2-18.99Q90.2-20.19 89.3-20.76 88.39-21.34 86.15-21.34L86.15-21.34Q84.19-21.34 83.18-20.85 82.17-20.36 82.07-19.07L82.07-19.07Q82.02-18.46 82.02-17.32 82.02-16.19 82.07-15.41L82.07-15.41 79.02-15.41Q78.97-16.02 78.92-16.99 78.87-17.97 78.95-18.73L78.95-18.73Q79.07-21.56 80.79-22.81 82.51-24.07 86.27-24.07L86.27-24.07Q90.2-24.07 91.73-22.71 93.25-21.34 93.28-18.21L93.28-18.21 93.28 0 90.2 0 90.2-2.25 89.52-2.25Q88.91-1.03 87.77-0.38 86.64 0.27 84.54 0.27ZM85.32-2.37L85.32-2.37Q88.83-2.37 90.18-4.47L90.18-4.47 90.18-11.87Q89-11.62 87.77-11.29 86.54-10.96 84.88-10.4L84.88-10.4Q82.9-9.67 82.24-8.72 81.58-7.76 81.48-6.49L81.48-6.49Q81.51-6.13 81.52-5.7 81.53-5.27 81.58-4.81L81.58-4.81Q81.75-3.64 82.75-3 83.75-2.37 85.32-2.37ZM100.92-19.19L100.92 0 97.77 0 97.77-23.75 100.92-23.75 100.92-21.53 101.53-21.53Q102.36-22.83 103.47-23.45 104.58-24.07 106.53-24.07L106.53-24.07Q110.46-24.07 111.36-21.34L111.36-21.34 112.02-21.34Q112.83-22.61 114.07-23.34 115.32-24.07 117.27-24.07L117.27-24.07Q119.88-24.07 121.18-22.86 122.47-21.66 122.47-18.82L122.47-18.82 122.47 0 119.35 0 119.35-19.09Q119.3-20.31 118.59-20.86 117.88-21.41 116.25-21.41L116.25-21.41Q113-21.41 111.73-19.12L111.73-19.12 111.73 0 108.61 0 108.61-19.09Q108.56-20.31 107.85-20.86 107.14-21.41 105.55-21.41L105.55-21.41Q102.09-21.41 100.92-19.19L100.92-19.19Z" opacity="1" transform="matrix(1,0,0,1,0,0)" fill="black" class="wordmark-text-0" id="SvgjsPath1398"></path></svg></g></svg></g><g transform="matrix(1,0,0,1,0,88.34019540110425)"><svg viewBox="0 0 244.43136 28.922418290788016" height="28.922418290788016" width="244.43136"><g transform="matrix(1,0,0,1,0,0)"><svg width="244.43136" viewBox="0.49 -35.4 395.90999999999997 46.849999999999994" height="28.922418290788016" data-palette-color="url(#3bf35124-dd43-4ba5-98c4-c8089a39de58)"><path d="M26-24.1L26-22.14 23.39-21.85 13.79 1.54Q13.48 2.34 12.81 3.85 12.13 5.35 11.22 6.92 10.3 8.5 9.25 9.55L9.25 9.55Q8.35 10.45 7.26 10.95 6.18 11.45 4.91 11.45L4.91 11.45Q3.13 11.45 2.19 10.58 1.25 9.72 1.25 8.59L1.25 8.59Q1.25 6.93 2.86 5.59L2.86 5.59 7.54 7.74Q8.37 6.91 9.2 5.49 10.03 4.08 10.71 2.56 11.38 1.05 11.74-0.05L11.74-0.05 3.25-21.85 0.49-22.14 0.49-24.1 11.55-24.1 11.55-22.14 9.16-22Q8.35-21.92 8.35-21.19L8.35-21.19Q8.35-21 8.4-20.9L8.4-20.9 14.21-6.15 20.14-20.9Q20.21-21.04 20.21-21.22L20.21-21.22Q20.21-21.95 19.46-22L19.46-22 17.09-22.14 17.09-24.1 26-24.1ZM51.98-12.01L51.98-12.01Q51.98-8.47 50.51-5.6 49.05-2.73 46.37-1.06 43.7 0.61 40.04 0.61L40.04 0.61Q36.4 0.61 33.74-1.05 31.08-2.71 29.64-5.57 28.2-8.42 28.2-12.01L28.2-12.01Q28.2-15.58 29.65-18.46 31.1-21.34 33.8-23.02 36.5-24.71 40.18-24.71L40.18-24.71Q43.92-24.71 46.56-23 49.19-21.29 50.58-18.41 51.98-15.53 51.98-12.01ZM46.77-12.06L46.77-12.06Q46.77-14.79 46.05-17.16 45.33-19.53 43.86-21 42.38-22.46 40.13-22.46L40.13-22.46Q37.81-22.46 36.34-21 34.86-19.53 34.15-17.16 33.44-14.79 33.44-12.06L33.44-12.06Q33.44-9.35 34.16-6.97 34.89-4.59 36.36-3.13 37.84-1.66 40.09-1.66L40.09-1.66Q42.38-1.66 43.86-3.13 45.33-4.59 46.05-6.96 46.77-9.33 46.77-12.06ZM81.07-1.95L81.07 0 73.14 0 73.14-2.86Q72.29-2.2 70.97-1.39 69.65-0.59 68.13 0.01 66.62 0.61 65.13 0.61L65.13 0.61Q61.91 0.61 60.07-1.33 58.22-3.27 58.22-7.5L58.22-7.5 58.22-21.04 54.73-21.04 54.73-22.75 60.88-24.71 62.89-24.71 62.89-8.45Q62.89-5.79 63.97-4.3 65.06-2.81 67.72-2.81L67.72-2.81Q69.26-2.81 70.75-3.33 72.24-3.86 73.14-4.3L73.14-4.3 73.14-21.04 69.62-21.04 69.62-22.75 75.73-24.71 77.78-24.71 77.78-3.2Q77.78-2.73 78.11-2.44 78.44-2.15 78.88-2.1L78.88-2.1 81.07-1.95ZM101.16-23.95L101.16-18.99 99.21-18.99Q98.75-19.56 98.1-19.96 97.45-20.36 96.53-20.36L96.53-20.36Q95.33-20.36 94.07-19.53 92.81-18.7 91.52-17.26L91.52-17.26 91.52-3.2Q91.52-2.15 92.57-2.1L92.57-2.1 95.87-1.95 95.87 0 83.37 0 83.37-1.9 85.83-2.1Q86.27-2.15 86.58-2.44 86.88-2.73 86.88-3.2L86.88-3.2 86.88-20.56 83.27-20.56 83.27-22.19 89.47-24.1 91.52-24.1 91.52-19.65Q92.25-20.46 93.35-21.66 94.45-22.85 95.7-23.78 96.94-24.71 98.11-24.71L98.11-24.71Q98.89-24.71 99.8-24.46 100.7-24.22 101.16-23.95L101.16-23.95ZM145.79-4.71L145.79-4.71 145.79-1.86Q144.1-0.95 141.99-0.17 139.88 0.61 137.34 0.61L137.34 0.61Q133.85 0.61 131.27-1.03 128.7-2.66 127.29-5.48 125.89-8.3 125.89-11.89L125.89-11.89Q125.89-16.09 127.56-18.95 129.24-21.8 131.98-23.25 134.73-24.71 137.93-24.71L137.93-24.71Q141.22-24.71 143.46-23.43 145.69-22.14 145.69-19.7L145.69-19.7Q145.69-18.24 144.78-17.49 143.86-16.75 142.74-16.75L142.74-16.75Q141.91-16.75 141.3-17.03 140.69-17.31 140.22-17.6L140.22-17.6 140.22-21.95Q139.07-22.61 138.12-22.61L138.12-22.61Q135.9-22.61 134.3-21.3 132.7-20 131.85-17.72 130.99-15.45 130.99-12.55L130.99-12.55Q130.99-9.79 131.92-7.51 132.85-5.22 134.69-3.88 136.54-2.54 139.27-2.54L139.27-2.54Q141-2.54 142.59-3.1 144.18-3.66 145.79-4.71ZM172.96-12.01L172.96-12.01Q172.96-8.47 171.49-5.6 170.03-2.73 167.36-1.06 164.68 0.61 161.02 0.61L161.02 0.61Q157.38 0.61 154.72-1.05 152.06-2.71 150.62-5.57 149.18-8.42 149.18-12.01L149.18-12.01Q149.18-15.58 150.63-18.46 152.08-21.34 154.78-23.02 157.48-24.71 161.17-24.71L161.17-24.71Q164.9-24.71 167.54-23 170.18-21.29 171.57-18.41 172.96-15.53 172.96-12.01ZM167.76-12.06L167.76-12.06Q167.76-14.79 167.04-17.16 166.32-19.53 164.84-21 163.36-22.46 161.12-22.46L161.12-22.46Q158.8-22.46 157.32-21 155.84-19.53 155.14-17.16 154.43-14.79 154.43-12.06L154.43-12.06Q154.43-9.35 155.15-6.97 155.87-4.59 157.35-3.13 158.82-1.66 161.07-1.66L161.07-1.66Q163.36-1.66 164.84-3.13 166.32-4.59 167.04-6.96 167.76-9.33 167.76-12.06ZM202.01-1.95L202.01 0 190.97 0 190.97-1.95 193.07-2.1Q193.51-2.15 193.82-2.44 194.12-2.73 194.12-3.2L194.12-3.2 194.12-16.21Q194.12-18.58 193.02-19.81 191.93-21.04 189.31-21.04L189.31-21.04Q187.9-21.04 186.49-20.64 185.09-20.24 183.82-19.6L183.82-19.6 183.82-3.2Q183.82-2.17 184.87-2.1L184.87-2.1 186.97-1.95 186.97 0 175.67 0 175.67-1.95 178.11-2.1Q179.16-2.17 179.16-3.2L179.16-3.2 179.16-20.56 175.67-20.56 175.67-22.19 181.77-24.1 183.82-24.1 183.82-21.61Q185.92-22.8 188.13-23.75 190.34-24.71 192.07-24.71L192.07-24.71Q195.34-24.71 197.05-22.67 198.76-20.63 198.76-16.99L198.76-16.99 198.76-3.2Q198.76-2.73 199.07-2.44 199.37-2.15 199.81-2.1L199.81-2.1 202.01-1.95ZM228.96-24.1L228.96-22.14 226.3-21.85 217.56 0 214.31 0 206.25-21.85 203.5-22.14 203.5-24.1 214.56-24.1 214.56-22.14 212.16-22Q211.36-21.92 211.36-21.19L211.36-21.19Q211.36-21.09 211.41-20.9L211.41-20.9 217-5.25 223.15-20.9Q223.22-21.04 223.22-21.22L223.22-21.22Q223.22-21.95 222.47-22L222.47-22 220.22-22.14 220.22-24.1 228.96-24.1ZM252.25-5.54L252.25-2.49Q250.15-1.2 247.72-0.29 245.29 0.61 242.75 0.61L242.75 0.61Q239.72 0.61 237.07-0.74 234.43-2.1 232.79-4.86 231.15-7.62 231.15-11.79L231.15-11.79Q231.15-15.7 232.67-18.6 234.18-21.51 236.84-23.11 239.5-24.71 242.9-24.71L242.9-24.71Q247.56-24.71 249.9-21.81 252.25-18.92 252.25-14.45L252.25-14.45Q252.25-14.21 252.25-13.81 252.25-13.4 252.2-13.06L252.2-13.06 235.99-13.06Q235.99-11.16 236.39-9.27 236.79-7.37 237.75-5.83 238.7-4.3 240.31-3.37 241.92-2.44 244.34-2.44L244.34-2.44Q246.49-2.44 248.52-3.43 250.56-4.42 252.25-5.54L252.25-5.54ZM236.26-15.31L247.24-15.31 247.24-16.41Q247.24-18.87 246.06-20.56 244.87-22.24 242.38-22.24L242.38-22.24Q239.92-22.24 238.19-20.39 236.45-18.53 236.26-15.31L236.26-15.31ZM281.3-1.95L281.3 0 270.26 0 270.26-1.95 272.36-2.1Q272.8-2.15 273.11-2.44 273.41-2.73 273.41-3.2L273.41-3.2 273.41-16.21Q273.41-18.58 272.31-19.81 271.22-21.04 268.6-21.04L268.6-21.04Q267.19-21.04 265.78-20.64 264.38-20.24 263.11-19.6L263.11-19.6 263.11-3.2Q263.11-2.17 264.16-2.1L264.16-2.1 266.26-1.95 266.26 0 254.96 0 254.96-1.95 257.4-2.1Q258.45-2.17 258.45-3.2L258.45-3.2 258.45-20.56 254.96-20.56 254.96-22.19 261.06-24.1 263.11-24.1 263.11-21.61Q265.21-22.8 267.42-23.75 269.63-24.71 271.36-24.71L271.36-24.71Q274.63-24.71 276.34-22.67 278.05-20.63 278.05-16.99L278.05-16.99 278.05-3.2Q278.05-2.73 278.36-2.44 278.66-2.15 279.1-2.1L279.1-2.1 281.3-1.95ZM293.19-32.35L293.19-32.35Q293.19-31.08 292.31-30.16 291.43-29.25 290.16-29.25L290.16-29.25Q288.89-29.25 287.97-30.16 287.06-31.08 287.06-32.35L287.06-32.35Q287.06-33.64 287.97-34.52 288.89-35.4 290.16-35.4L290.16-35.4Q291.43-35.4 292.31-34.52 293.19-33.64 293.19-32.35ZM295.75-1.95L295.75 0 284.01 0 284.01-1.95 286.45-2.1Q287.5-2.17 287.5-3.2L287.5-3.2 287.5-21.04 284.05-21.04 284.05-22.8 290.16-24.71 292.14-24.71 292.14-3.2Q292.14-2.73 292.44-2.44 292.75-2.15 293.19-2.1L293.19-2.1 295.75-1.95ZM320.26-5.54L320.26-2.49Q318.16-1.2 315.73-0.29 313.3 0.61 310.76 0.61L310.76 0.61Q307.73 0.61 305.08-0.74 302.44-2.1 300.8-4.86 299.16-7.62 299.16-11.79L299.16-11.79Q299.16-15.7 300.68-18.6 302.19-21.51 304.85-23.11 307.51-24.71 310.91-24.71L310.91-24.71Q315.57-24.71 317.91-21.81 320.26-18.92 320.26-14.45L320.26-14.45Q320.26-14.21 320.26-13.81 320.26-13.4 320.21-13.06L320.21-13.06 304-13.06Q304-11.16 304.4-9.27 304.8-7.37 305.76-5.83 306.71-4.3 308.32-3.37 309.93-2.44 312.35-2.44L312.35-2.44Q314.5-2.44 316.53-3.43 318.57-4.42 320.26-5.54L320.26-5.54ZM304.27-15.31L315.25-15.31 315.25-16.41Q315.25-18.87 314.07-20.56 312.89-22.24 310.39-22.24L310.39-22.24Q307.93-22.24 306.2-20.39 304.46-18.53 304.27-15.31L304.27-15.31ZM349.31-1.95L349.31 0 338.27 0 338.27-1.95 340.37-2.1Q340.81-2.15 341.12-2.44 341.42-2.73 341.42-3.2L341.42-3.2 341.42-16.21Q341.42-18.58 340.32-19.81 339.23-21.04 336.61-21.04L336.61-21.04Q335.2-21.04 333.79-20.64 332.39-20.24 331.12-19.6L331.12-19.6 331.12-3.2Q331.12-2.17 332.17-2.1L332.17-2.1 334.27-1.95 334.27 0 322.97 0 322.97-1.95 325.41-2.1Q326.46-2.17 326.46-3.2L326.46-3.2 326.46-20.56 322.97-20.56 322.97-22.19 329.07-24.1 331.12-24.1 331.12-21.61Q333.22-22.8 335.43-23.75 337.64-24.71 339.37-24.71L339.37-24.71Q342.64-24.71 344.35-22.67 346.06-20.63 346.06-16.99L346.06-16.99 346.06-3.2Q346.06-2.73 346.37-2.44 346.67-2.15 347.11-2.1L347.11-2.1 349.31-1.95ZM371.91-4.71L371.91-4.71 371.91-1.86Q370.23-0.95 368.12-0.17 366.01 0.61 363.47 0.61L363.47 0.61Q359.97 0.61 357.4-1.03 354.82-2.66 353.42-5.48 352.02-8.3 352.02-11.89L352.02-11.89Q352.02-16.09 353.69-18.95 355.36-21.8 358.11-23.25 360.85-24.71 364.05-24.71L364.05-24.71Q367.35-24.71 369.58-23.43 371.82-22.14 371.82-19.7L371.82-19.7Q371.82-18.24 370.9-17.49 369.98-16.75 368.86-16.75L368.86-16.75Q368.03-16.75 367.42-17.03 366.81-17.31 366.35-17.6L366.35-17.6 366.35-21.95Q365.2-22.61 364.25-22.61L364.25-22.61Q362.03-22.61 360.43-21.3 358.83-20 357.97-17.72 357.12-15.45 357.12-12.55L357.12-12.55Q357.12-9.79 358.05-7.51 358.97-5.22 360.82-3.88 362.66-2.54 365.39-2.54L365.39-2.54Q367.13-2.54 368.72-3.1 370.3-3.66 371.91-4.71ZM396.4-5.54L396.4-2.49Q394.3-1.2 391.87-0.29 389.44 0.61 386.9 0.61L386.9 0.61Q383.87 0.61 381.22-0.74 378.58-2.1 376.94-4.86 375.3-7.62 375.3-11.79L375.3-11.79Q375.3-15.7 376.82-18.6 378.33-21.51 380.99-23.11 383.65-24.71 387.05-24.71L387.05-24.71Q391.71-24.71 394.05-21.81 396.4-18.92 396.4-14.45L396.4-14.45Q396.4-14.21 396.4-13.81 396.4-13.4 396.35-13.06L396.35-13.06 380.14-13.06Q380.14-11.16 380.54-9.27 380.94-7.37 381.9-5.83 382.85-4.3 384.46-3.37 386.07-2.44 388.49-2.44L388.49-2.44Q390.64-2.44 392.67-3.43 394.71-4.42 396.4-5.54L396.4-5.54ZM380.41-15.31L391.39-15.31 391.39-16.41Q391.39-18.87 390.21-20.56 389.03-22.24 386.53-22.24L386.53-22.24Q384.07-22.24 382.34-20.39 380.6-18.53 380.41-15.31L380.41-15.31Z" opacity="1" transform="matrix(1,0,0,1,0,0)" fill="black" class="slogan-text-1" id="SvgjsPath1397"></path></svg></g></svg></g></svg></g></svg></g></svg></g></svg></g></svg></g><path d="M243.251 58.969L243.251 2.315 0.68 2.315 0.68 244.885 243.251 244.885 243.251 188.231 236.806 188.231 236.806 238.44 7.125 238.44 7.125 8.76 236.806 8.76 236.806 58.969Z" fill="black" stroke="transparent"></path></svg></g><defs><mask></mask></defs></svg><rect width="395.52" height="247.2" fill="black" stroke="none" visibility="hidden"></rect></g></mask></svg><rect width="395.52" height="247.2" fill="black" stroke="none" visibility="hidden"></rect></g></mask></svg><rect width="395.52" height="247.2" fill="black" stroke="none" visibility="hidden"></rect></g></mask><linearGradient x1="0" x2="1" y1="0.578" y2="0.595" id="c76d292b-77e8-4af7-a237-19f7e638566b"><stop stop-color="#dede50" offset="0"></stop><stop stop-color="#559c49" offset="1"></stop></linearGradient></svg><rect width="395.52" height="247.2" fill="none" stroke="none" visibility="hidden"></rect></g></svg></g></svg>